<svg width="280" height="156" viewBox="0 0 280 156" fill="none" xmlns="http://www.w3.org/2000/svg">
<path d="M4.54688 20.5781C6.02083 20.5781 7.09635 20.8672 7.77344 21.4453C8.45573 22.0182 8.79688 22.8411 8.79688 23.9141C8.79688 24.3984 8.71615 24.8594 8.55469 25.2969C8.39844 25.7292 8.14323 26.112 7.78906 26.4453C7.4349 26.7734 6.96875 27.0339 6.39062 27.2266C5.81771 27.4141 5.11458 27.5078 4.28125 27.5078H2.89062V32H1.5625V20.5781H4.54688ZM4.42188 21.7109H2.89062V26.3672H4.13281C4.86198 26.3672 5.46875 26.2891 5.95312 26.1328C6.44271 25.9766 6.8099 25.724 7.05469 25.375C7.29948 25.0208 7.42188 24.5521 7.42188 23.9688C7.42188 23.2083 7.17969 22.6432 6.69531 22.2734C6.21094 21.8984 5.45312 21.7109 4.42188 21.7109ZM14.1953 23.2969C15.2161 23.2969 15.974 23.526 16.4688 23.9844C16.9635 24.4427 17.2109 25.1745 17.2109 26.1797V32H16.2656L16.0156 30.7344H15.9531C15.7135 31.0469 15.4635 31.3099 15.2031 31.5234C14.9427 31.7318 14.6406 31.8906 14.2969 32C13.9583 32.1042 13.5417 32.1562 13.0469 32.1562C12.526 32.1562 12.0625 32.0651 11.6562 31.8828C11.2552 31.7005 10.9375 31.4245 10.7031 31.0547C10.474 30.6849 10.3594 30.2161 10.3594 29.6484C10.3594 28.7943 10.6979 28.138 11.375 27.6797C12.0521 27.2214 13.0833 26.9714 14.4688 26.9297L15.9453 26.8672V26.3438C15.9453 25.6042 15.7865 25.0859 15.4688 24.7891C15.151 24.4922 14.7031 24.3438 14.125 24.3438C13.6771 24.3438 13.25 24.4089 12.8438 24.5391C12.4375 24.6693 12.0521 24.8229 11.6875 25L11.2891 24.0156C11.6745 23.8177 12.1172 23.6484 12.6172 23.5078C13.1172 23.3672 13.6432 23.2969 14.1953 23.2969ZM15.9297 27.7812L14.625 27.8359C13.5573 27.8776 12.8047 28.0521 12.3672 28.3594C11.9297 28.6667 11.7109 29.1016 11.7109 29.6641C11.7109 30.1536 11.8594 30.5156 12.1562 30.75C12.4531 30.9844 12.8464 31.1016 13.3359 31.1016C14.0964 31.1016 14.7188 30.8906 15.2031 30.4688C15.6875 30.0469 15.9297 29.4141 15.9297 28.5703V27.7812ZM26.1562 23.4375V30.8984H27.3828V34.9609H26.125V32H20.0625V34.9609H18.8203V30.8984H19.4922C19.9818 30.2214 20.388 29.4792 20.7109 28.6719C21.0339 27.8646 21.2786 27.0182 21.4453 26.1328C21.612 25.2422 21.7005 24.3438 21.7109 23.4375H26.1562ZM24.8984 24.4688H22.8672C22.8203 25.2292 22.7083 26.0026 22.5312 26.7891C22.3594 27.5755 22.1302 28.3255 21.8438 29.0391C21.5573 29.7474 21.224 30.3672 20.8438 30.8984H24.8984V24.4688ZM30.3203 23.4375V28.8203C30.3203 28.9245 30.3177 29.0599 30.3125 29.2266C30.3073 29.388 30.2995 29.5625 30.2891 29.75C30.2786 29.9323 30.2682 30.1094 30.2578 30.2812C30.2526 30.4479 30.2448 30.5859 30.2344 30.6953L34.9062 23.4375H36.5V32H35.2891V26.75C35.2891 26.5833 35.2917 26.3698 35.2969 26.1094C35.3021 25.849 35.3099 25.5938 35.3203 25.3438C35.3307 25.0885 35.3385 24.8906 35.3438 24.75L30.6875 32H29.0859V23.4375H30.3203ZM42.4609 23.2969C43.4818 23.2969 44.2396 23.526 44.7344 23.9844C45.2292 24.4427 45.4766 25.1745 45.4766 26.1797V32H44.5312L44.2812 30.7344H44.2188C43.9792 31.0469 43.7292 31.3099 43.4688 31.5234C43.2083 31.7318 42.9062 31.8906 42.5625 32C42.224 32.1042 41.8073 32.1562 41.3125 32.1562C40.7917 32.1562 40.3281 32.0651 39.9219 31.8828C39.5208 31.7005 39.2031 31.4245 38.9688 31.0547C38.7396 30.6849 38.625 30.2161 38.625 29.6484C38.625 28.7943 38.9635 28.138 39.6406 27.6797C40.3177 27.2214 41.349 26.9714 42.7344 26.9297L44.2109 26.8672V26.3438C44.2109 25.6042 44.0521 25.0859 43.7344 24.7891C43.4167 24.4922 42.9688 24.3438 42.3906 24.3438C41.9427 24.3438 41.5156 24.4089 41.1094 24.5391C40.7031 24.6693 40.3177 24.8229 39.9531 25L39.5547 24.0156C39.9401 23.8177 40.3828 23.6484 40.8828 23.5078C41.3828 23.3672 41.9089 23.2969 42.4609 23.2969ZM44.1953 27.7812L42.8906 27.8359C41.8229 27.8776 41.0703 28.0521 40.6328 28.3594C40.1953 28.6667 39.9766 29.1016 39.9766 29.6641C39.9766 30.1536 40.125 30.5156 40.4219 30.75C40.7188 30.9844 41.112 31.1016 41.6016 31.1016C42.362 31.1016 42.9844 30.8906 43.4688 30.4688C43.9531 30.0469 44.1953 29.4141 44.1953 28.5703V27.7812ZM53.9844 24.5391H51.1641V32H49.8828V24.5391H47.1016V23.4375H53.9844V24.5391ZM63.0625 27.7031C63.0625 28.4062 62.9714 29.0339 62.7891 29.5859C62.6068 30.138 62.3438 30.6042 62 30.9844C61.6562 31.3646 61.2396 31.6562 60.75 31.8594C60.2656 32.0573 59.7161 32.1562 59.1016 32.1562C58.5286 32.1562 58.0026 32.0573 57.5234 31.8594C57.0495 31.6562 56.638 31.3646 56.2891 30.9844C55.9453 30.6042 55.6771 30.138 55.4844 29.5859C55.2969 29.0339 55.2031 28.4062 55.2031 27.7031C55.2031 26.7656 55.362 25.9688 55.6797 25.3125C55.9974 24.651 56.4505 24.1484 57.0391 23.8047C57.6328 23.4557 58.3385 23.2812 59.1562 23.2812C59.9375 23.2812 60.6198 23.4557 61.2031 23.8047C61.7917 24.1536 62.2474 24.6589 62.5703 25.3203C62.8984 25.9766 63.0625 26.7708 63.0625 27.7031ZM56.5469 27.7031C56.5469 28.3906 56.638 28.987 56.8203 29.4922C57.0026 29.9974 57.2839 30.388 57.6641 30.6641C58.0443 30.9401 58.5339 31.0781 59.1328 31.0781C59.7266 31.0781 60.2135 30.9401 60.5938 30.6641C60.9792 30.388 61.263 29.9974 61.4453 29.4922C61.6276 28.987 61.7188 28.3906 61.7188 27.7031C61.7188 27.0208 61.6276 26.4323 61.4453 25.9375C61.263 25.4375 60.9818 25.0521 60.6016 24.7812C60.2214 24.5104 59.7292 24.375 59.125 24.375C58.2344 24.375 57.5807 24.6693 57.1641 25.2578C56.7526 25.8464 56.5469 26.6615 56.5469 27.7031ZM69.3281 23.2812C70.3958 23.2812 71.2474 23.6484 71.8828 24.3828C72.5182 25.1172 72.8359 26.2214 72.8359 27.6953C72.8359 28.6693 72.6901 29.487 72.3984 30.1484C72.1068 30.8099 71.6953 31.3099 71.1641 31.6484C70.638 31.987 70.0156 32.1562 69.2969 32.1562C68.8438 32.1562 68.4453 32.0964 68.1016 31.9766C67.7578 31.8568 67.4635 31.6953 67.2188 31.4922C66.974 31.2891 66.7708 31.0677 66.6094 30.8281H66.5156C66.5312 31.0312 66.5495 31.276 66.5703 31.5625C66.5964 31.849 66.6094 32.099 66.6094 32.3125V35.8281H65.3047V23.4375H66.375L66.5469 24.7031H66.6094C66.776 24.4427 66.9792 24.2057 67.2188 23.9922C67.4583 23.7734 67.75 23.6016 68.0938 23.4766C68.4427 23.3464 68.8542 23.2812 69.3281 23.2812ZM69.1016 24.375C68.5078 24.375 68.0286 24.4896 67.6641 24.7188C67.3047 24.9479 67.0417 25.2917 66.875 25.75C66.7083 26.2031 66.6198 26.7734 66.6094 27.4609V27.7109C66.6094 28.4349 66.6875 29.0469 66.8438 29.5469C67.0052 30.0469 67.2682 30.4271 67.6328 30.6875C68.0026 30.9479 68.4974 31.0781 69.1172 31.0781C69.6484 31.0781 70.0911 30.9349 70.4453 30.6484C70.7995 30.362 71.0625 29.9635 71.2344 29.4531C71.4115 28.9375 71.5 28.3464 71.5 27.6797C71.5 26.6693 71.3021 25.8672 70.9062 25.2734C70.5156 24.6745 69.9141 24.375 69.1016 24.375ZM75.1016 32V23.4375H76.4062V26.9688H78.75C79.4792 26.9688 80.0781 27.0599 80.5469 27.2422C81.0208 27.4245 81.3724 27.6953 81.6016 28.0547C81.8307 28.4141 81.9453 28.8594 81.9453 29.3906C81.9453 29.9219 81.8307 30.3828 81.6016 30.7734C81.3776 31.1641 81.0234 31.4661 80.5391 31.6797C80.0599 31.8932 79.4349 32 78.6641 32H75.1016ZM76.4062 30.9453H78.5391C79.1849 30.9453 79.7005 30.8307 80.0859 30.6016C80.4714 30.3724 80.6641 29.9896 80.6641 29.4531C80.6641 28.9271 80.4844 28.5625 80.125 28.3594C79.7656 28.151 79.25 28.0469 78.5781 28.0469H76.4062V30.9453ZM83.3594 32V23.4375H84.6562V32H83.3594Z" fill="#2B2A29"/>
<path d="M274.09 24.0625L279.094 29.2852C279.203 29.4219 279.285 29.5859 279.285 29.75C279.285 29.9141 279.203 30.0781 279.094 30.1875L274.09 35.4102C273.844 35.6836 273.406 35.6836 273.16 35.4375C272.887 35.1914 272.887 34.7812 273.133 34.5078L277.727 29.7227L273.133 24.9648C272.887 24.7188 272.887 24.2812 273.16 24.0352C273.406 23.7891 273.844 23.7891 274.09 24.0625Z" fill="#AF936C"/>
<rect width="280" height="52" stroke="#E7E7E7"/>
<path d="M9.75 84H8.14062L2.89062 78.2031V84H1.5625V72.5781H2.89062V78.1094L8.00781 72.5781H9.53125L4.47656 78.125L9.75 84ZM18.5156 79.7031C18.5156 80.4062 18.4245 81.0339 18.2422 81.5859C18.0599 82.138 17.7969 82.6042 17.4531 82.9844C17.1094 83.3646 16.6927 83.6562 16.2031 83.8594C15.7188 84.0573 15.1693 84.1562 14.5547 84.1562C13.9818 84.1562 13.4557 84.0573 12.9766 83.8594C12.5026 83.6562 12.0911 83.3646 11.7422 82.9844C11.3984 82.6042 11.1302 82.138 10.9375 81.5859C10.75 81.0339 10.6562 80.4062 10.6562 79.7031C10.6562 78.7656 10.8151 77.9688 11.1328 77.3125C11.4505 76.651 11.9036 76.1484 12.4922 75.8047C13.0859 75.4557 13.7917 75.2812 14.6094 75.2812C15.3906 75.2812 16.0729 75.4557 16.6562 75.8047C17.2448 76.1536 17.7005 76.6589 18.0234 77.3203C18.3516 77.9766 18.5156 78.7708 18.5156 79.7031ZM12 79.7031C12 80.3906 12.0911 80.987 12.2734 81.4922C12.4557 81.9974 12.737 82.388 13.1172 82.6641C13.4974 82.9401 13.987 83.0781 14.5859 83.0781C15.1797 83.0781 15.6667 82.9401 16.0469 82.6641C16.4323 82.388 16.7161 81.9974 16.8984 81.4922C17.0807 80.987 17.1719 80.3906 17.1719 79.7031C17.1719 79.0208 17.0807 78.4323 16.8984 77.9375C16.7161 77.4375 16.4349 77.0521 16.0547 76.7812C15.6745 76.5104 15.1823 76.375 14.5781 76.375C13.6875 76.375 13.0339 76.6693 12.6172 77.2578C12.2057 77.8464 12 78.6615 12 79.7031ZM22.0625 75.4375V79.0312H26.8359V75.4375H28.1328V84H26.8359V80.1328H22.0625V84H20.7578V75.4375H22.0625ZM37.6875 77.5859C37.6875 78.1224 37.5312 78.5417 37.2188 78.8438C36.9062 79.1406 36.5026 79.3411 36.0078 79.4453V79.5078C36.5443 79.5807 37.0052 79.7734 37.3906 80.0859C37.7812 80.3932 37.9766 80.8646 37.9766 81.5C37.9766 81.9896 37.8594 82.4219 37.625 82.7969C37.3906 83.1719 37.0234 83.4661 36.5234 83.6797C36.0234 83.8932 35.3724 84 34.5703 84H30.8828V75.4375H34.5391C35.1536 75.4375 35.6953 75.5078 36.1641 75.6484C36.638 75.7839 37.0104 76.0078 37.2812 76.3203C37.5521 76.6328 37.6875 77.0547 37.6875 77.5859ZM36.625 81.5C36.625 80.9948 36.4323 80.6302 36.0469 80.4062C35.6667 80.1823 35.112 80.0703 34.3828 80.0703H32.1875V82.9453H34.4141C35.1328 82.9453 35.6797 82.8359 36.0547 82.6172C36.4349 82.3932 36.625 82.0208 36.625 81.5ZM36.3672 77.7344C36.3672 77.3281 36.2188 77.026 35.9219 76.8281C35.625 76.625 35.138 76.5234 34.4609 76.5234H32.1875V78.9844H34.2344C34.9375 78.9844 35.4688 78.8828 35.8281 78.6797C36.1875 78.4766 36.3672 78.1615 36.3672 77.7344ZM43.3672 75.2812C44.0964 75.2812 44.7214 75.4427 45.2422 75.7656C45.763 76.0885 46.1615 76.5417 46.4375 77.125C46.7135 77.7031 46.8516 78.3802 46.8516 79.1562V79.9609H40.9375C40.9531 80.9661 41.2031 81.7318 41.6875 82.2578C42.1719 82.7839 42.8542 83.0469 43.7344 83.0469C44.276 83.0469 44.7552 82.9974 45.1719 82.8984C45.5885 82.7995 46.0208 82.6536 46.4688 82.4609V83.6016C46.0365 83.7943 45.6068 83.9349 45.1797 84.0234C44.7578 84.112 44.2578 84.1562 43.6797 84.1562C42.8568 84.1562 42.138 83.9896 41.5234 83.6562C40.9141 83.3177 40.4401 82.8229 40.1016 82.1719C39.763 81.5208 39.5938 80.724 39.5938 79.7812C39.5938 78.8594 39.7474 78.0625 40.0547 77.3906C40.3672 76.7135 40.8047 76.1927 41.3672 75.8281C41.9349 75.4635 42.6016 75.2812 43.3672 75.2812ZM43.3516 76.3438C42.6589 76.3438 42.1068 76.5703 41.6953 77.0234C41.2839 77.4766 41.0391 78.1094 40.9609 78.9219H45.4922C45.487 78.4115 45.4062 77.9635 45.25 77.5781C45.099 77.1875 44.8672 76.8854 44.5547 76.6719C44.2422 76.4531 43.8411 76.3438 43.3516 76.3438ZM54.0469 75.4375H55.4766L51.7812 79.5703L55.7734 84H54.25L50.3594 79.6562V84H49.0547V75.4375H50.3594V79.5938L54.0469 75.4375ZM63.1562 76.5391H60.3359V84H59.0547V76.5391H56.2734V75.4375H63.1562V76.5391ZM72.2344 79.7031C72.2344 80.4062 72.1432 81.0339 71.9609 81.5859C71.7786 82.138 71.5156 82.6042 71.1719 82.9844C70.8281 83.3646 70.4115 83.6562 69.9219 83.8594C69.4375 84.0573 68.888 84.1562 68.2734 84.1562C67.7005 84.1562 67.1745 84.0573 66.6953 83.8594C66.2214 83.6562 65.8099 83.3646 65.4609 82.9844C65.1172 82.6042 64.849 82.138 64.6562 81.5859C64.4688 81.0339 64.375 80.4062 64.375 79.7031C64.375 78.7656 64.5339 77.9688 64.8516 77.3125C65.1693 76.651 65.6224 76.1484 66.2109 75.8047C66.8047 75.4557 67.5104 75.2812 68.3281 75.2812C69.1094 75.2812 69.7917 75.4557 70.375 75.8047C70.9635 76.1536 71.4193 76.6589 71.7422 77.3203C72.0703 77.9766 72.2344 78.7708 72.2344 79.7031ZM65.7188 79.7031C65.7188 80.3906 65.8099 80.987 65.9922 81.4922C66.1745 81.9974 66.4557 82.388 66.8359 82.6641C67.2161 82.9401 67.7057 83.0781 68.3047 83.0781C68.8984 83.0781 69.3854 82.9401 69.7656 82.6641C70.151 82.388 70.4349 81.9974 70.6172 81.4922C70.7995 80.987 70.8906 80.3906 70.8906 79.7031C70.8906 79.0208 70.7995 78.4323 70.6172 77.9375C70.4349 77.4375 70.1536 77.0521 69.7734 76.7812C69.3932 76.5104 68.901 76.375 68.2969 76.375C67.4062 76.375 66.7526 76.6693 66.3359 77.2578C65.9245 77.8464 65.7188 78.6615 65.7188 79.7031ZM78.5 75.2812C79.5677 75.2812 80.4193 75.6484 81.0547 76.3828C81.6901 77.1172 82.0078 78.2214 82.0078 79.6953C82.0078 80.6693 81.862 81.487 81.5703 82.1484C81.2786 82.8099 80.8672 83.3099 80.3359 83.6484C79.8099 83.987 79.1875 84.1562 78.4688 84.1562C78.0156 84.1562 77.6172 84.0964 77.2734 83.9766C76.9297 83.8568 76.6354 83.6953 76.3906 83.4922C76.1458 83.2891 75.9427 83.0677 75.7812 82.8281H75.6875C75.7031 83.0312 75.7214 83.276 75.7422 83.5625C75.7682 83.849 75.7812 84.099 75.7812 84.3125V87.8281H74.4766V75.4375H75.5469L75.7188 76.7031H75.7812C75.9479 76.4427 76.151 76.2057 76.3906 75.9922C76.6302 75.7734 76.9219 75.6016 77.2656 75.4766C77.6146 75.3464 78.026 75.2812 78.5 75.2812ZM78.2734 76.375C77.6797 76.375 77.2005 76.4896 76.8359 76.7188C76.4766 76.9479 76.2135 77.2917 76.0469 77.75C75.8802 78.2031 75.7917 78.7734 75.7812 79.4609V79.7109C75.7812 80.4349 75.8594 81.0469 76.0156 81.5469C76.1771 82.0469 76.4401 82.4271 76.8047 82.6875C77.1745 82.9479 77.6693 83.0781 78.2891 83.0781C78.8203 83.0781 79.263 82.9349 79.6172 82.6484C79.9714 82.362 80.2344 81.9635 80.4062 81.4531C80.5833 80.9375 80.6719 80.3464 80.6719 79.6797C80.6719 78.6693 80.474 77.8672 80.0781 77.2734C79.6875 76.6745 79.0859 76.375 78.2734 76.375ZM84.2734 84V75.4375H85.5781V78.9688H87.9219C88.651 78.9688 89.25 79.0599 89.7188 79.2422C90.1927 79.4245 90.5443 79.6953 90.7734 80.0547C91.0026 80.4141 91.1172 80.8594 91.1172 81.3906C91.1172 81.9219 91.0026 82.3828 90.7734 82.7734C90.5495 83.1641 90.1953 83.4661 89.7109 83.6797C89.2318 83.8932 88.6068 84 87.8359 84H84.2734ZM85.5781 82.9453H87.7109C88.3568 82.9453 88.8724 82.8307 89.2578 82.6016C89.6432 82.3724 89.8359 81.9896 89.8359 81.4531C89.8359 80.9271 89.6562 80.5625 89.2969 80.3594C88.9375 80.151 88.4219 80.0469 87.75 80.0469H85.5781V82.9453ZM92.5312 84V75.4375H93.8281V84H92.5312Z" fill="#2B2A29"/>
<path d="M274.09 76.0625L279.094 81.2852C279.203 81.4219 279.285 81.5859 279.285 81.75C279.285 81.9141 279.203 82.0781 279.094 82.1875L274.09 87.4102C273.844 87.6836 273.406 87.6836 273.16 87.4375C272.887 87.1914 272.887 86.7812 273.133 86.5078L277.727 81.7227L273.133 76.9648C272.887 76.7188 272.887 76.2812 273.16 76.0352C273.406 75.7891 273.844 75.7891 274.09 76.0625Z" fill="#AF936C"/>
<path d="M0 53H280V51H0V53Z" fill="#E7E7E7" mask="url(#path-5-inside-1_84_3400)"/>
<path d="M8.72656 136L7.32031 132.375H2.74219L1.34375 136H0L4.46875 124.531H5.66406L10.1016 136H8.72656ZM6.92188 131.195L5.58594 127.594C5.55469 127.5 5.5026 127.346 5.42969 127.133C5.36198 126.919 5.29167 126.698 5.21875 126.469C5.14583 126.24 5.08594 126.055 5.03906 125.914C4.98698 126.128 4.92969 126.341 4.86719 126.555C4.8099 126.763 4.7526 126.958 4.69531 127.141C4.63802 127.318 4.58854 127.469 4.54688 127.594L3.1875 131.195H6.92188ZM15.5156 127.281C16.5833 127.281 17.4349 127.648 18.0703 128.383C18.7057 129.117 19.0234 130.221 19.0234 131.695C19.0234 132.669 18.8776 133.487 18.5859 134.148C18.2943 134.81 17.8828 135.31 17.3516 135.648C16.8255 135.987 16.2031 136.156 15.4844 136.156C15.0312 136.156 14.6328 136.096 14.2891 135.977C13.9453 135.857 13.651 135.695 13.4062 135.492C13.1615 135.289 12.9583 135.068 12.7969 134.828H12.7031C12.7188 135.031 12.737 135.276 12.7578 135.562C12.7839 135.849 12.7969 136.099 12.7969 136.312V139.828H11.4922V127.438H12.5625L12.7344 128.703H12.7969C12.9635 128.443 13.1667 128.206 13.4062 127.992C13.6458 127.773 13.9375 127.602 14.2812 127.477C14.6302 127.346 15.0417 127.281 15.5156 127.281ZM15.2891 128.375C14.6953 128.375 14.2161 128.49 13.8516 128.719C13.4922 128.948 13.2292 129.292 13.0625 129.75C12.8958 130.203 12.8073 130.773 12.7969 131.461V131.711C12.7969 132.435 12.875 133.047 13.0312 133.547C13.1927 134.047 13.4557 134.427 13.8203 134.688C14.1901 134.948 14.6849 135.078 15.3047 135.078C15.8359 135.078 16.2786 134.935 16.6328 134.648C16.987 134.362 17.25 133.964 17.4219 133.453C17.599 132.938 17.6875 132.346 17.6875 131.68C17.6875 130.669 17.4896 129.867 17.0938 129.273C16.7031 128.674 16.1016 128.375 15.2891 128.375ZM30.3281 127.438V136H29.1562V130.422C29.1562 130.193 29.1615 129.961 29.1719 129.727C29.1875 129.487 29.2057 129.247 29.2266 129.008H29.1797L26.3359 136H25.2344L22.4609 129.008H22.4141C22.4297 129.247 22.4401 129.487 22.4453 129.727C22.4557 129.961 22.4609 130.208 22.4609 130.469V136H21.2812V127.438H23.0234L25.7891 134.438L28.5938 127.438H30.3281ZM36.2266 127.297C37.2474 127.297 38.0052 127.526 38.5 127.984C38.9948 128.443 39.2422 129.174 39.2422 130.18V136H38.2969L38.0469 134.734H37.9844C37.7448 135.047 37.4948 135.31 37.2344 135.523C36.974 135.732 36.6719 135.891 36.3281 136C35.9896 136.104 35.5729 136.156 35.0781 136.156C34.5573 136.156 34.0938 136.065 33.6875 135.883C33.2865 135.701 32.9688 135.424 32.7344 135.055C32.5052 134.685 32.3906 134.216 32.3906 133.648C32.3906 132.794 32.7292 132.138 33.4062 131.68C34.0833 131.221 35.1146 130.971 36.5 130.93L37.9766 130.867V130.344C37.9766 129.604 37.8177 129.086 37.5 128.789C37.1823 128.492 36.7344 128.344 36.1562 128.344C35.7083 128.344 35.2812 128.409 34.875 128.539C34.4688 128.669 34.0833 128.823 33.7188 129L33.3203 128.016C33.7057 127.818 34.1484 127.648 34.6484 127.508C35.1484 127.367 35.6745 127.297 36.2266 127.297ZM37.9609 131.781L36.6562 131.836C35.5885 131.878 34.8359 132.052 34.3984 132.359C33.9609 132.667 33.7422 133.102 33.7422 133.664C33.7422 134.154 33.8906 134.516 34.1875 134.75C34.4844 134.984 34.8776 135.102 35.3672 135.102C36.1276 135.102 36.75 134.891 37.2344 134.469C37.7188 134.047 37.9609 133.414 37.9609 132.57V131.781ZM47.75 128.539H44.9297V136H43.6484V128.539H40.8672V127.438H47.75V128.539ZM48.0938 127.438H49.4844L51.375 132.406C51.4844 132.698 51.5859 132.979 51.6797 133.25C51.7734 133.516 51.8568 133.771 51.9297 134.016C52.0026 134.26 52.0599 134.497 52.1016 134.727H52.1562C52.2292 134.466 52.3333 134.125 52.4688 133.703C52.6042 133.276 52.75 132.841 52.9062 132.398L54.6953 127.438H56.0938L52.3672 137.258C52.1693 137.784 51.9375 138.242 51.6719 138.633C51.4115 139.023 51.0938 139.323 50.7188 139.531C50.3438 139.745 49.8906 139.852 49.3594 139.852C49.1146 139.852 48.8984 139.836 48.7109 139.805C48.5234 139.779 48.362 139.747 48.2266 139.711V138.672C48.3411 138.698 48.4792 138.721 48.6406 138.742C48.8073 138.763 48.9792 138.773 49.1562 138.773C49.4792 138.773 49.7578 138.711 49.9922 138.586C50.2318 138.466 50.4375 138.289 50.6094 138.055C50.7812 137.82 50.9297 137.542 51.0547 137.219L51.5234 136.016L48.0938 127.438ZM61.4844 127.281C62.5521 127.281 63.4036 127.648 64.0391 128.383C64.6745 129.117 64.9922 130.221 64.9922 131.695C64.9922 132.669 64.8464 133.487 64.5547 134.148C64.263 134.81 63.8516 135.31 63.3203 135.648C62.7943 135.987 62.1719 136.156 61.4531 136.156C61 136.156 60.6016 136.096 60.2578 135.977C59.9141 135.857 59.6198 135.695 59.375 135.492C59.1302 135.289 58.9271 135.068 58.7656 134.828H58.6719C58.6875 135.031 58.7057 135.276 58.7266 135.562C58.7526 135.849 58.7656 136.099 58.7656 136.312V139.828H57.4609V127.438H58.5312L58.7031 128.703H58.7656C58.9323 128.443 59.1354 128.206 59.375 127.992C59.6146 127.773 59.9062 127.602 60.25 127.477C60.599 127.346 61.0104 127.281 61.4844 127.281ZM61.2578 128.375C60.6641 128.375 60.1849 128.49 59.8203 128.719C59.4609 128.948 59.1979 129.292 59.0312 129.75C58.8646 130.203 58.776 130.773 58.7656 131.461V131.711C58.7656 132.435 58.8438 133.047 59 133.547C59.1615 134.047 59.4245 134.427 59.7891 134.688C60.1589 134.948 60.6536 135.078 61.2734 135.078C61.8047 135.078 62.2474 134.935 62.6016 134.648C62.9557 134.362 63.2188 133.964 63.3906 133.453C63.5677 132.938 63.6562 132.346 63.6562 131.68C63.6562 130.669 63.4583 129.867 63.0625 129.273C62.6719 128.674 62.0703 128.375 61.2578 128.375ZM70.4609 127.297C71.4818 127.297 72.2396 127.526 72.7344 127.984C73.2292 128.443 73.4766 129.174 73.4766 130.18V136H72.5312L72.2812 134.734H72.2188C71.9792 135.047 71.7292 135.31 71.4688 135.523C71.2083 135.732 70.9062 135.891 70.5625 136C70.224 136.104 69.8073 136.156 69.3125 136.156C68.7917 136.156 68.3281 136.065 67.9219 135.883C67.5208 135.701 67.2031 135.424 66.9688 135.055C66.7396 134.685 66.625 134.216 66.625 133.648C66.625 132.794 66.9635 132.138 67.6406 131.68C68.3177 131.221 69.349 130.971 70.7344 130.93L72.2109 130.867V130.344C72.2109 129.604 72.0521 129.086 71.7344 128.789C71.4167 128.492 70.9688 128.344 70.3906 128.344C69.9427 128.344 69.5156 128.409 69.1094 128.539C68.7031 128.669 68.3177 128.823 67.9531 129L67.5547 128.016C67.9401 127.818 68.3828 127.648 68.8828 127.508C69.3828 127.367 69.9089 127.297 70.4609 127.297ZM72.1953 131.781L70.8906 131.836C69.8229 131.878 69.0703 132.052 68.6328 132.359C68.1953 132.667 67.9766 133.102 67.9766 133.664C67.9766 134.154 68.125 134.516 68.4219 134.75C68.7188 134.984 69.112 135.102 69.6016 135.102C70.362 135.102 70.9844 134.891 71.4688 134.469C71.9531 134.047 72.1953 133.414 72.1953 132.57V131.781Z" fill="#2B2A29"/>
<path d="M274.09 128.062L279.094 133.285C279.203 133.422 279.285 133.586 279.285 133.75C279.285 133.914 279.203 134.078 279.094 134.188L274.09 139.41C273.844 139.684 273.406 139.684 273.16 139.438C272.887 139.191 272.887 138.781 273.133 138.508L277.727 133.723L273.133 128.965C272.887 128.719 272.887 128.281 273.16 128.035C273.406 127.789 273.844 127.789 274.09 128.062Z" fill="#AF936C"/>
<path d="M0 105H280V103H0V105Z" fill="#E7E7E7" mask="url(#path-9-inside-2_84_3400)"/>
</svg>
