<svg width="168" height="19" viewBox="0 0 168 19" fill="none" xmlns="http://www.w3.org/2000/svg">
<path d="M7 2.25C3.0625 2.25 0.109375 5.53125 0 9.25V10.7266C0 11.8477 0.875 12.75 1.99609 12.75H2.48828C3.03516 12.75 3.5 12.3125 3.5 11.7383V8.10156C3.5 7.52734 3.03516 7.0625 2.48828 7.0625H1.99609C1.88672 7.0625 1.80469 7.08984 1.72266 7.11719C2.57031 5.03906 4.62109 3.58984 7 3.58984C9.35156 3.58984 11.4023 5.03906 12.25 7.08984C12.168 7.08984 12.0859 7.0625 11.9766 7.0625H11.4844C10.9375 7.0625 10.5 7.52734 10.5 8.10156V11.7383C10.5 12.3125 10.9375 12.75 11.4844 12.75H11.9766C12.2227 12.75 12.4688 12.7227 12.6875 12.6406V13.1875C12.6875 13.8164 12.1953 14.2812 11.5938 14.2812H8.55859C8.33984 13.8984 7.90234 13.625 7.4375 13.625H6.5625C5.82422 13.625 5.25 14.2266 5.25 14.9375C5.25 15.6758 5.82422 16.25 6.53516 16.25H7.4375C7.90234 16.25 8.33984 16.0039 8.55859 15.5938H11.5938C12.9062 15.5938 14 14.5273 14 13.1875V9.25C13.8633 5.53125 10.9102 2.25 7 2.25ZM1.99609 8.375H2.1875V11.4375H1.99609C1.61328 11.4375 1.3125 11.1094 1.3125 10.7266V9.25C1.3125 9.19531 1.3125 9.14062 1.3125 9.05859C1.33984 8.67578 1.61328 8.375 1.99609 8.375ZM11.9766 11.4375H11.8125V8.375H11.9766C12.3594 8.375 12.6328 8.70312 12.6602 9.05859C12.6602 9.14062 12.6875 9.19531 12.6875 9.25V10.7266C12.6875 11.1094 12.3594 11.4375 11.9766 11.4375Z" fill="#005DB4"/>
<path d="M46.888 4.832C47.784 4.832 48.4933 4.91733 49.016 5.088C49.5493 5.248 49.9333 5.536 50.168 5.952C50.4027 6.368 50.52 6.95467 50.52 7.712C50.52 8.50133 50.376 9.104 50.088 9.52C49.8 9.936 49.3253 10.176 48.664 10.24V10.304C49.4853 10.3787 50.0507 10.6667 50.36 11.168C50.68 11.6693 50.84 12.3627 50.84 13.248C50.84 14.0053 50.7227 14.592 50.488 15.008C50.2533 15.424 49.88 15.7173 49.368 15.888C48.8667 16.048 48.2 16.128 47.368 16.128C46.8667 16.128 46.3973 16.1173 45.96 16.096C45.5227 16.0747 45.1067 16.0373 44.712 15.984C44.328 15.9307 43.9547 15.8613 43.592 15.776L43.704 14.752C44.12 14.7947 44.6213 14.8427 45.208 14.896C45.8053 14.9387 46.4507 14.96 47.144 14.96C47.7093 14.96 48.152 14.912 48.472 14.816C48.8027 14.7093 49.0373 14.5173 49.176 14.24C49.3253 13.952 49.4 13.5413 49.4 13.008C49.4 12.4427 49.3253 12.0053 49.176 11.696C49.0267 11.376 48.776 11.152 48.424 11.024C48.0827 10.896 47.6187 10.832 47.032 10.832H45.176V9.728H47.032C47.5547 9.728 47.9653 9.67467 48.264 9.568C48.5627 9.46133 48.776 9.27467 48.904 9.008C49.0427 8.74133 49.112 8.36267 49.112 7.872C49.112 7.36 49.0373 6.97067 48.888 6.704C48.7493 6.42667 48.5093 6.24 48.168 6.144C47.8373 6.03733 47.384 5.984 46.808 5.984C46.2 5.984 45.656 6.00533 45.176 6.048C44.7067 6.09067 44.3013 6.128 43.96 6.16L43.848 5.088C44.3387 5.00267 44.8187 4.93867 45.288 4.896C45.7573 4.85333 46.2907 4.832 46.888 4.832ZM56.7569 8.016C57.3329 8.016 57.8182 8.096 58.2129 8.256C58.6075 8.40533 58.9062 8.66133 59.1089 9.024C59.3115 9.38667 59.4129 9.88267 59.4129 10.512V16H58.3409L58.1329 14.304L58.0529 14.128V10.512C58.0422 10.032 57.9302 9.69067 57.7169 9.488C57.5035 9.27467 57.0875 9.168 56.4689 9.168C56.0529 9.168 55.5355 9.18933 54.9169 9.232C54.3089 9.27467 53.7062 9.32267 53.1089 9.376L52.9809 8.368C53.3435 8.304 53.7435 8.24533 54.1809 8.192C54.6182 8.13867 55.0609 8.096 55.5089 8.064C55.9569 8.032 56.3729 8.016 56.7569 8.016ZM58.7729 11.2L58.7569 12.224L55.0449 12.24C54.6715 12.2507 54.4049 12.352 54.2449 12.544C54.0955 12.7253 54.0209 12.9813 54.0209 13.312V13.808C54.0209 14.2133 54.1169 14.512 54.3089 14.704C54.5115 14.8853 54.8209 14.976 55.2369 14.976C55.5355 14.976 55.8715 14.9227 56.2449 14.816C56.6289 14.6987 57.0129 14.5227 57.3969 14.288C57.7809 14.0533 58.1329 13.7547 58.4529 13.392V14.4C58.3462 14.5493 58.1809 14.7253 57.9569 14.928C57.7435 15.12 57.4822 15.312 57.1729 15.504C56.8742 15.6853 56.5382 15.84 56.1649 15.968C55.7915 16.0853 55.3915 16.144 54.9649 16.144C54.5062 16.144 54.1009 16.064 53.7489 15.904C53.3969 15.7333 53.1249 15.488 52.9329 15.168C52.7409 14.8373 52.6449 14.4373 52.6449 13.968V13.12C52.6449 12.512 52.8315 12.0427 53.2049 11.712C53.5889 11.3707 54.1222 11.2 54.8049 11.2H58.7729ZM68.433 8.208C68.2623 8.66667 68.097 9.088 67.937 9.472C67.7877 9.84533 67.633 10.176 67.473 10.464C67.3237 10.752 67.153 10.9973 66.961 11.2C66.7797 11.4027 66.5663 11.568 66.321 11.696C66.0757 11.8133 65.7877 11.888 65.457 11.92V11.968C65.809 12 66.113 12.0747 66.369 12.192C66.625 12.3093 66.849 12.4747 67.041 12.688C67.2437 12.8907 67.425 13.1467 67.585 13.456C67.7557 13.7653 67.9263 14.1333 68.097 14.56C68.2677 14.976 68.4543 15.456 68.657 16H67.233C67.041 15.4987 66.865 15.056 66.705 14.672C66.545 14.2773 66.385 13.9413 66.225 13.664C66.0757 13.3867 65.9103 13.1627 65.729 12.992C65.5477 12.8107 65.3343 12.6827 65.089 12.608C64.8543 12.5227 64.577 12.48 64.257 12.48V11.424C64.641 11.424 64.9663 11.3547 65.233 11.216C65.4997 11.0667 65.729 10.8533 65.921 10.576C66.1237 10.2987 66.3103 9.96267 66.481 9.568C66.6517 9.17333 66.833 8.72 67.025 8.208H68.433ZM63.249 8.208V10.528C63.249 10.7627 63.233 10.9973 63.201 11.232C63.169 11.4667 63.121 11.696 63.057 11.92C63.121 12.144 63.169 12.368 63.201 12.592C63.233 12.816 63.249 13.0293 63.249 13.232V16H61.889V8.208H63.249ZM64.769 11.424V12.48H62.849V11.424H64.769ZM74.1631 8.016C74.7391 8.016 75.2245 8.096 75.6191 8.256C76.0138 8.40533 76.3125 8.66133 76.5151 9.024C76.7178 9.38667 76.8191 9.88267 76.8191 10.512V16H75.7471L75.5391 14.304L75.4591 14.128V10.512C75.4485 10.032 75.3365 9.69067 75.1231 9.488C74.9098 9.27467 74.4938 9.168 73.8751 9.168C73.4591 9.168 72.9418 9.18933 72.3231 9.232C71.7151 9.27467 71.1125 9.32267 70.5151 9.376L70.3871 8.368C70.7498 8.304 71.1498 8.24533 71.5871 8.192C72.0245 8.13867 72.4671 8.096 72.9151 8.064C73.3631 8.032 73.7791 8.016 74.1631 8.016ZM76.1791 11.2L76.1631 12.224L72.4511 12.24C72.0778 12.2507 71.8111 12.352 71.6511 12.544C71.5018 12.7253 71.4271 12.9813 71.4271 13.312V13.808C71.4271 14.2133 71.5231 14.512 71.7151 14.704C71.9178 14.8853 72.2271 14.976 72.6431 14.976C72.9418 14.976 73.2778 14.9227 73.6511 14.816C74.0351 14.6987 74.4191 14.5227 74.8031 14.288C75.1871 14.0533 75.5391 13.7547 75.8591 13.392V14.4C75.7525 14.5493 75.5871 14.7253 75.3631 14.928C75.1498 15.12 74.8885 15.312 74.5791 15.504C74.2805 15.6853 73.9445 15.84 73.5711 15.968C73.1978 16.0853 72.7978 16.144 72.3711 16.144C71.9125 16.144 71.5071 16.064 71.1551 15.904C70.8031 15.7333 70.5311 15.488 70.3391 15.168C70.1471 14.8373 70.0511 14.4373 70.0511 13.968V13.12C70.0511 12.512 70.2378 12.0427 70.6111 11.712C70.9951 11.3707 71.5285 11.2 72.2111 11.2H76.1791ZM81.3273 8.08C82.1913 8.08 82.8793 8.13867 83.3913 8.256C83.9033 8.36267 84.2713 8.56533 84.4953 8.864C84.7299 9.16267 84.8473 9.59467 84.8473 10.16C84.8473 10.7147 84.7246 11.1413 84.4793 11.44C84.2446 11.7387 83.8179 11.9147 83.1993 11.968V12.016C83.8926 12.0693 84.3833 12.2613 84.6713 12.592C84.9699 12.9227 85.1193 13.4187 85.1193 14.08C85.1193 14.624 85.0073 15.0453 84.7833 15.344C84.5593 15.6427 84.2019 15.8507 83.7113 15.968C83.2206 16.0853 82.5753 16.144 81.7753 16.144C81.2953 16.144 80.7833 16.1227 80.2393 16.08C79.6953 16.048 79.1779 15.9893 78.6873 15.904L78.7993 14.864C79.1513 14.896 79.5886 14.928 80.1113 14.96C80.6446 14.9813 81.1673 14.992 81.6793 14.992C82.4686 14.992 83.0019 14.912 83.2793 14.752C83.5673 14.5813 83.7113 14.2613 83.7113 13.792C83.7113 13.4613 83.6473 13.2053 83.5193 13.024C83.4019 12.8427 83.1939 12.7147 82.8953 12.64C82.6073 12.5653 82.2126 12.528 81.7113 12.528H79.8393V11.536L81.6953 11.52C82.1646 11.52 82.5273 11.488 82.7833 11.424C83.0499 11.3493 83.2366 11.2267 83.3433 11.056C83.4499 10.8853 83.5033 10.6453 83.5033 10.336C83.5033 10.0267 83.4339 9.79733 83.2953 9.648C83.1673 9.488 82.9486 9.38133 82.6393 9.328C82.3299 9.264 81.8979 9.232 81.3433 9.232C80.9273 9.232 80.5113 9.24267 80.0953 9.264C79.6793 9.28533 79.3273 9.31733 79.0393 9.36L78.9273 8.32C79.3646 8.21333 79.7913 8.14933 80.2073 8.128C80.6339 8.096 81.0073 8.08 81.3273 8.08ZM90.9288 8.016C91.5048 8.016 91.9901 8.096 92.3848 8.256C92.7794 8.40533 93.0781 8.66133 93.2808 9.024C93.4834 9.38667 93.5848 9.88267 93.5848 10.512V16H92.5128L92.3048 14.304L92.2248 14.128V10.512C92.2141 10.032 92.1021 9.69067 91.8888 9.488C91.6754 9.27467 91.2594 9.168 90.6408 9.168C90.2248 9.168 89.7074 9.18933 89.0888 9.232C88.4808 9.27467 87.8781 9.32267 87.2808 9.376L87.1528 8.368C87.5154 8.304 87.9154 8.24533 88.3528 8.192C88.7901 8.13867 89.2328 8.096 89.6808 8.064C90.1288 8.032 90.5448 8.016 90.9288 8.016ZM92.9448 11.2L92.9288 12.224L89.2168 12.24C88.8434 12.2507 88.5768 12.352 88.4168 12.544C88.2674 12.7253 88.1928 12.9813 88.1928 13.312V13.808C88.1928 14.2133 88.2888 14.512 88.4808 14.704C88.6834 14.8853 88.9928 14.976 89.4088 14.976C89.7074 14.976 90.0434 14.9227 90.4168 14.816C90.8008 14.6987 91.1848 14.5227 91.5688 14.288C91.9528 14.0533 92.3048 13.7547 92.6248 13.392V14.4C92.5181 14.5493 92.3528 14.7253 92.1288 14.928C91.9154 15.12 91.6541 15.312 91.3448 15.504C91.0461 15.6853 90.7101 15.84 90.3368 15.968C89.9634 16.0853 89.5634 16.144 89.1368 16.144C88.6781 16.144 88.2728 16.064 87.9208 15.904C87.5688 15.7333 87.2968 15.488 87.1048 15.168C86.9128 14.8373 86.8168 14.4373 86.8168 13.968V13.12C86.8168 12.512 87.0034 12.0427 87.3768 11.712C87.7608 11.3707 88.2941 11.2 88.9768 11.2H92.9448ZM99.4049 8.208V16H98.0449V8.208H99.4049ZM102.221 8.208V9.328H95.2129V8.208H102.221ZM107.073 11.232C107.873 11.232 108.497 11.3067 108.945 11.456C109.403 11.6053 109.729 11.8613 109.921 12.224C110.113 12.576 110.209 13.056 110.209 13.664C110.209 14.2933 110.107 14.7893 109.905 15.152C109.713 15.504 109.398 15.7493 108.961 15.888C108.534 16.0267 107.974 16.096 107.281 16.096C106.769 16.096 106.326 16.0907 105.953 16.08C105.579 16.08 105.238 16.0693 104.929 16.048C104.619 16.0373 104.294 16.0213 103.953 16L104.129 14.976C104.321 14.9867 104.678 14.9973 105.201 15.008C105.734 15.0187 106.358 15.024 107.073 15.024C107.499 15.024 107.841 14.9867 108.097 14.912C108.353 14.8373 108.534 14.6987 108.641 14.496C108.758 14.2933 108.817 14 108.817 13.616C108.817 13.2747 108.763 13.0027 108.657 12.8C108.561 12.5973 108.385 12.4533 108.129 12.368C107.883 12.2827 107.531 12.24 107.073 12.24H104.113V11.232H107.073ZM105.233 8.208V16H103.905V8.208H105.233ZM117.749 8.08C118.613 8.08 119.301 8.13867 119.813 8.256C120.325 8.36267 120.693 8.56533 120.917 8.864C121.152 9.16267 121.269 9.59467 121.269 10.16C121.269 10.7147 121.146 11.1413 120.901 11.44C120.666 11.7387 120.24 11.9147 119.621 11.968V12.016C120.314 12.0693 120.805 12.2613 121.093 12.592C121.392 12.9227 121.541 13.4187 121.541 14.08C121.541 14.624 121.429 15.0453 121.205 15.344C120.981 15.6427 120.624 15.8507 120.133 15.968C119.642 16.0853 118.997 16.144 118.197 16.144C117.717 16.144 117.205 16.1227 116.661 16.08C116.117 16.048 115.6 15.9893 115.109 15.904L115.221 14.864C115.573 14.896 116.01 14.928 116.533 14.96C117.066 14.9813 117.589 14.992 118.101 14.992C118.89 14.992 119.424 14.912 119.701 14.752C119.989 14.5813 120.133 14.2613 120.133 13.792C120.133 13.4613 120.069 13.2053 119.941 13.024C119.824 12.8427 119.616 12.7147 119.317 12.64C119.029 12.5653 118.634 12.528 118.133 12.528H116.261V11.536L118.117 11.52C118.586 11.52 118.949 11.488 119.205 11.424C119.472 11.3493 119.658 11.2267 119.765 11.056C119.872 10.8853 119.925 10.6453 119.925 10.336C119.925 10.0267 119.856 9.79733 119.717 9.648C119.589 9.488 119.37 9.38133 119.061 9.328C118.752 9.264 118.32 9.232 117.765 9.232C117.349 9.232 116.933 9.24267 116.517 9.264C116.101 9.28533 115.749 9.31733 115.461 9.36L115.349 8.32C115.786 8.21333 116.213 8.14933 116.629 8.128C117.056 8.096 117.429 8.08 117.749 8.08ZM126.823 8.128C127.633 8.128 128.273 8.18667 128.743 8.304C129.223 8.42133 129.569 8.62933 129.783 8.928C129.996 9.22667 130.103 9.65333 130.103 10.208C130.103 10.7627 129.969 11.184 129.703 11.472C129.447 11.7493 129.02 11.9147 128.423 11.968V12.016C129.148 12.0693 129.655 12.272 129.943 12.624C130.231 12.9653 130.375 13.4507 130.375 14.08C130.375 14.6133 130.268 15.0293 130.055 15.328C129.852 15.616 129.521 15.8187 129.063 15.936C128.615 16.0533 128.012 16.112 127.255 16.112C126.711 16.112 126.236 16.1067 125.831 16.096C125.425 16.096 125.052 16.0853 124.711 16.064C124.38 16.0533 124.028 16.0373 123.655 16.016L123.847 15.008C124.06 15.0187 124.455 15.0293 125.031 15.04C125.607 15.04 126.284 15.04 127.063 15.04C127.543 15.04 127.927 15.008 128.215 14.944C128.503 14.8693 128.705 14.7413 128.823 14.56C128.951 14.3787 129.015 14.1227 129.015 13.792C129.015 13.2907 128.865 12.9493 128.567 12.768C128.268 12.576 127.74 12.48 126.983 12.48H123.831V11.504H126.983C127.431 11.504 127.788 11.472 128.055 11.408C128.321 11.344 128.513 11.2267 128.631 11.056C128.748 10.8747 128.807 10.6293 128.807 10.32C128.807 10.0213 128.743 9.792 128.615 9.632C128.487 9.472 128.273 9.36 127.975 9.296C127.676 9.232 127.276 9.2 126.775 9.2C126.316 9.18933 125.9 9.184 125.527 9.184C125.164 9.184 124.844 9.18933 124.567 9.2C124.289 9.2 124.049 9.21067 123.847 9.232L123.655 8.224C123.985 8.192 124.3 8.17067 124.599 8.16C124.897 8.14933 125.223 8.144 125.575 8.144C125.927 8.13333 126.343 8.128 126.823 8.128ZM124.935 8.224V16.016H123.655V8.224H124.935ZM135.81 8.016C136.706 8.016 137.421 8.14933 137.954 8.416C138.488 8.68267 138.872 9.12 139.106 9.728C139.352 10.3253 139.474 11.12 139.474 12.112C139.474 13.104 139.352 13.904 139.106 14.512C138.872 15.1093 138.488 15.5413 137.954 15.808C137.421 16.0747 136.706 16.208 135.81 16.208C134.914 16.208 134.194 16.0747 133.65 15.808C133.117 15.5413 132.728 15.1093 132.482 14.512C132.248 13.904 132.13 13.104 132.13 12.112C132.13 11.12 132.248 10.3253 132.482 9.728C132.728 9.12 133.117 8.68267 133.65 8.416C134.194 8.14933 134.914 8.016 135.81 8.016ZM135.81 9.168C135.245 9.168 134.797 9.25867 134.466 9.44C134.136 9.61067 133.901 9.90933 133.762 10.336C133.624 10.7627 133.554 11.3547 133.554 12.112C133.554 12.8693 133.624 13.4613 133.762 13.888C133.901 14.3147 134.136 14.6187 134.466 14.8C134.797 14.9707 135.245 15.056 135.81 15.056C136.376 15.056 136.818 14.9707 137.138 14.8C137.469 14.6187 137.704 14.3147 137.842 13.888C137.981 13.4613 138.05 12.8693 138.05 12.112C138.05 11.3547 137.981 10.7627 137.842 10.336C137.704 9.90933 137.469 9.61067 137.138 9.44C136.818 9.25867 136.376 9.168 135.81 9.168ZM142.983 8.208V16H141.639V8.208H142.983ZM147.223 11.344V12.384H142.887V11.344H147.223ZM148.423 8.208V16H147.079V8.208H148.423ZM154.264 8.016C155.16 8.016 155.874 8.14933 156.408 8.416C156.941 8.68267 157.325 9.12 157.56 9.728C157.805 10.3253 157.928 11.12 157.928 12.112C157.928 13.104 157.805 13.904 157.56 14.512C157.325 15.1093 156.941 15.5413 156.408 15.808C155.874 16.0747 155.16 16.208 154.264 16.208C153.368 16.208 152.648 16.0747 152.104 15.808C151.57 15.5413 151.181 15.1093 150.936 14.512C150.701 13.904 150.584 13.104 150.584 12.112C150.584 11.12 150.701 10.3253 150.936 9.728C151.181 9.12 151.57 8.68267 152.104 8.416C152.648 8.14933 153.368 8.016 154.264 8.016ZM154.264 9.168C153.698 9.168 153.25 9.25867 152.92 9.44C152.589 9.61067 152.354 9.90933 152.216 10.336C152.077 10.7627 152.008 11.3547 152.008 12.112C152.008 12.8693 152.077 13.4613 152.216 13.888C152.354 14.3147 152.589 14.6187 152.92 14.8C153.25 14.9707 153.698 15.056 154.264 15.056C154.829 15.056 155.272 14.9707 155.592 14.8C155.922 14.6187 156.157 14.3147 156.296 13.888C156.434 13.4613 156.504 12.8693 156.504 12.112C156.504 11.3547 156.434 10.7627 156.296 10.336C156.157 9.90933 155.922 9.61067 155.592 9.44C155.272 9.25867 154.829 9.168 154.264 9.168ZM166.636 8.208C166.465 8.66667 166.3 9.088 166.14 9.472C165.991 9.84533 165.836 10.176 165.676 10.464C165.527 10.752 165.356 10.9973 165.164 11.2C164.983 11.4027 164.769 11.568 164.524 11.696C164.279 11.8133 163.991 11.888 163.66 11.92V11.968C164.012 12 164.316 12.0747 164.572 12.192C164.828 12.3093 165.052 12.4747 165.244 12.688C165.447 12.8907 165.628 13.1467 165.788 13.456C165.959 13.7653 166.129 14.1333 166.3 14.56C166.471 14.976 166.657 15.456 166.86 16H165.436C165.244 15.4987 165.068 15.056 164.908 14.672C164.748 14.2773 164.588 13.9413 164.428 13.664C164.279 13.3867 164.113 13.1627 163.932 12.992C163.751 12.8107 163.537 12.6827 163.292 12.608C163.057 12.5227 162.78 12.48 162.46 12.48V11.424C162.844 11.424 163.169 11.3547 163.436 11.216C163.703 11.0667 163.932 10.8533 164.124 10.576C164.327 10.2987 164.513 9.96267 164.684 9.568C164.855 9.17333 165.036 8.72 165.228 8.208H166.636ZM161.452 8.208V10.528C161.452 10.7627 161.436 10.9973 161.404 11.232C161.372 11.4667 161.324 11.696 161.26 11.92C161.324 12.144 161.372 12.368 161.404 12.592C161.436 12.816 161.452 13.0293 161.452 13.232V16H160.092V8.208H161.452ZM162.972 11.424V12.48H161.052V11.424H162.972Z" fill="#005DB4"/>
</svg>
