<svg width="46" height="48" viewBox="0 0 46 48" fill="none" xmlns="http://www.w3.org/2000/svg">
<path d="M23 0C10.5312 0 0.5 10.125 0.5 22.5V29.25C0.5 29.7188 0.78125 30 1.15625 30C1.4375 30 2 29.7188 2 29.25V22.5C2 10.9688 11.375 1.5 23 1.5C34.5312 1.5 44 10.9688 44 22.5V37.5C44 40.4062 41.5625 42.75 38.75 42.75H29C28.9062 42.75 28.9062 42.8438 28.9062 42.8438C28.5312 40.6875 26.6562 39 24.5 39H21.5C18.9688 39 17 41.0625 17 43.5C17 46.0312 18.9688 48 21.4062 48H24.5C26.6562 48 28.5312 46.4062 28.9062 44.25C28.9062 44.25 28.9062 44.25 29 44.25H38.75C42.4062 44.25 45.5 41.25 45.5 37.5V22.5C45.5 10.125 35.375 0 23 0ZM24.5 46.5H21.5C19.8125 46.5 18.5 45.1875 18.5 43.5C18.5 41.9062 19.8125 40.5 21.5 40.5H24.5C26.0938 40.5 27.5 41.9062 27.5 43.5C27.5 45.1875 26.0938 46.5 24.5 46.5ZM12.5 18H10.9062C7.53125 18 4.90625 20.7188 4.90625 24L5 30C5 33.375 7.625 36 11 36H12.5C14.0938 36 15.5 34.6875 15.5 33V21C15.5 19.4062 14.0938 18 12.5 18ZM14 33C14 33.8438 13.25 34.5 12.5 34.5H11C8.46875 34.5 6.5 32.5312 6.5 30V24.0938C6.5 21.5625 8.46875 19.5 11 19.5H12.5C13.25 19.5 13.9062 20.25 13.9062 21L14 33ZM35 36C38.2812 36 41 33.375 41 30L40.9062 24.0938C40.9062 20.8125 38.2812 18.1875 34.9062 18.1875L33.5 18C31.8125 18 30.5 19.4062 30.5 21V33C30.5 34.6875 31.8125 36 33.5 36H35ZM32 33L31.9062 21.0938C31.9062 20.25 32.6562 19.5 33.5 19.5H35C37.4375 19.5 39.5 21.5625 39.5 24.0938V30C39.5 32.5312 37.4375 34.5 35 34.5H33.5C32.6562 34.5 32 33.8438 32 33Z" fill="white"/>
</svg>
