<svg width="60" height="48" viewBox="0 0 60 48" fill="none" xmlns="http://www.w3.org/2000/svg">
<rect x="0.5" y="0.5" width="59" height="47" rx="4.5" fill="white"/>
<path d="M22.625 18.625L22.9688 19L23.3438 18.6562C24.375 17.625 25.8438 17.1562 27.25 17.4062C29.4062 17.75 31 19.625 31 21.8125V21.9688C31 23.2812 30.4375 24.5312 29.5 25.4062L23.8438 30.6875C23.625 30.9062 23.3125 31 23 31C22.6562 31 22.3438 30.9062 22.125 30.6875L16.4688 25.4062C15.5312 24.5312 15 23.2812 15 21.9688V21.8125C15 19.625 16.5625 17.75 18.7188 17.4062C20.125 17.1562 21.5938 17.625 22.625 18.625C22.625 18.6562 22.5938 18.625 22.625 18.625ZM22.9688 21.125L21.5625 19.6875C20.875 19.0312 19.9062 18.7188 18.9688 18.875C17.5312 19.125 16.5 20.3438 16.5 21.8125V21.9688C16.5 22.875 16.8438 23.7188 17.5 24.3125L23 29.4375L28.4688 24.3125C29.125 23.7188 29.5 22.875 29.5 21.9688V21.8125C29.5 20.3438 28.4375 19.125 27 18.875C26.0625 18.7188 25.0938 19.0312 24.4062 19.6875L22.9688 21.125Z" fill="#C4D7E8"/>
<path d="M39.816 19.252C40.7653 19.252 41.5173 19.4493 42.072 19.844C42.6267 20.2387 43.0213 20.8573 43.256 21.7C43.5013 22.5427 43.624 23.636 43.624 24.98C43.624 26.324 43.5013 27.4173 43.256 28.26C43.0213 29.1027 42.6267 29.7213 42.072 30.116C41.5173 30.5107 40.7653 30.708 39.816 30.708C38.8773 30.708 38.1307 30.5107 37.576 30.116C37.0213 29.7213 36.6213 29.1027 36.376 28.26C36.1413 27.4173 36.024 26.324 36.024 24.98C36.024 23.636 36.1413 22.5427 36.376 21.7C36.6213 20.8573 37.0213 20.2387 37.576 19.844C38.1307 19.4493 38.8773 19.252 39.816 19.252ZM39.816 20.484C39.3573 20.484 38.9733 20.5693 38.664 20.74C38.3547 20.9 38.104 21.156 37.912 21.508C37.7307 21.86 37.5973 22.324 37.512 22.9C37.4373 23.4653 37.4 24.1587 37.4 24.98C37.4 25.7907 37.4373 26.484 37.512 27.06C37.5973 27.636 37.7307 28.1 37.912 28.452C38.104 28.804 38.3547 29.0653 38.664 29.236C38.9733 29.396 39.3573 29.476 39.816 29.476C40.2747 29.476 40.6587 29.396 40.968 29.236C41.288 29.0653 41.5387 28.804 41.72 28.452C41.912 28.1 42.0453 27.636 42.12 27.06C42.2053 26.484 42.248 25.7907 42.248 24.98C42.248 24.1587 42.2053 23.4653 42.12 22.9C42.0453 22.324 41.912 21.86 41.72 21.508C41.5387 21.156 41.288 20.9 40.968 20.74C40.6587 20.5693 40.2747 20.484 39.816 20.484Z" fill="#005DB4"/>
<rect x="0.5" y="0.5" width="59" height="47" rx="4.5" stroke="#EAEAEA"/>
</svg>
