<svg width="62" height="48" viewBox="0 0 62 48" fill="none" xmlns="http://www.w3.org/2000/svg">
<path d="M17 16C17.3438 16 17.6562 16.2812 17.7188 16.625L17.7812 17H30.9062C31.5625 17 32.0625 17.6562 31.875 18.2812L30.1875 24.2812C30.0625 24.7188 29.6875 25 29.2188 25H19.3125L19.5938 26.5H29.25C29.6562 26.5 30 26.8438 30 27.25C30 27.6875 29.6562 28 29.25 28H18.9688C18.625 28 18.3125 27.75 18.25 27.4062L16.375 17.5H14.75C14.3125 17.5 14 17.1875 14 16.75C14 16.3438 14.3125 16 14.75 16H17ZM28.8438 23.5L30.25 18.5H18.0938L19.0312 23.5H28.8438ZM18 30.5C18 29.6875 18.6562 29 19.5 29C20.3125 29 21 29.6875 21 30.5C21 31.3438 20.3125 32 19.5 32C18.6562 32 18 31.3438 18 30.5ZM30 30.5C30 31.3438 29.3125 32 28.5 32C27.6562 32 27 31.3438 27 30.5C27 29.6875 27.6562 29 28.5 29C29.3125 29 30 29.6875 30 30.5Z" fill="#005DB4"/>
<path d="M43.214 19.658C44.0447 19.658 44.7027 19.8307 45.188 20.176C45.6733 20.5213 46.0187 21.0627 46.224 21.8C46.4387 22.5373 46.546 23.494 46.546 24.67C46.546 25.846 46.4387 26.8027 46.224 27.54C46.0187 28.2773 45.6733 28.8187 45.188 29.164C44.7027 29.5093 44.0447 29.682 43.214 29.682C42.3927 29.682 41.7393 29.5093 41.254 29.164C40.7687 28.8187 40.4187 28.2773 40.204 27.54C39.9987 26.8027 39.896 25.846 39.896 24.67C39.896 23.494 39.9987 22.5373 40.204 21.8C40.4187 21.0627 40.7687 20.5213 41.254 20.176C41.7393 19.8307 42.3927 19.658 43.214 19.658ZM43.214 20.736C42.8127 20.736 42.4767 20.8107 42.206 20.96C41.9353 21.1 41.716 21.324 41.548 21.632C41.3893 21.94 41.2727 22.346 41.198 22.85C41.1327 23.3447 41.1 23.9513 41.1 24.67C41.1 25.3793 41.1327 25.986 41.198 26.49C41.2727 26.994 41.3893 27.4 41.548 27.708C41.716 28.016 41.9353 28.2447 42.206 28.394C42.4767 28.534 42.8127 28.604 43.214 28.604C43.6153 28.604 43.9513 28.534 44.222 28.394C44.502 28.2447 44.7213 28.016 44.88 27.708C45.048 27.4 45.1647 26.994 45.23 26.49C45.3047 25.986 45.342 25.3793 45.342 24.67C45.342 23.9513 45.3047 23.3447 45.23 22.85C45.1647 22.346 45.048 21.94 44.88 21.632C44.7213 21.324 44.502 21.1 44.222 20.96C43.9513 20.8107 43.6153 20.736 43.214 20.736Z" fill="#2B2A29"/>
<rect x="0.5" y="0.5" width="61" height="47" rx="4.5" stroke="#E8EEF1"/>
</svg>
