<svg width="131" height="48" viewBox="0 0 131 48" fill="none" xmlns="http://www.w3.org/2000/svg">
<rect width="131" height="48" rx="4.33184" fill="#005DB4"/>
<path d="M30.8134 15.2525C30.3766 14.8141 29.6488 14.5218 29.0665 14.5218C28.3386 14.5218 27.7563 14.8141 27.3196 15.2525L20.4776 22.121C20.0409 22.5594 19.7497 23.2901 19.7497 23.8747C19.7497 24.6054 20.0409 25.1899 20.4776 25.6283L31.5412 36.7349C31.5412 36.7349 31.6868 36.881 31.6868 37.0272C31.6868 37.1733 31.6868 37.1733 31.5412 37.3195L29.5032 39.3654C29.5032 39.3654 29.3576 39.5115 29.212 39.5115C29.0665 39.5115 29.0665 39.5115 28.9209 39.3654L13.7812 24.167C13.7812 24.167 13.6357 24.0208 13.6357 23.8747C13.6357 23.7285 13.6357 23.7285 13.7812 23.5824L28.9209 8.38392C28.9209 8.38392 29.0665 8.23778 29.212 8.23778C29.3576 8.23778 29.3576 8.23779 29.5032 8.38392L36.7819 15.6909C36.7819 15.6909 36.9275 15.837 37.073 15.837C37.2186 15.837 37.2186 15.837 37.3642 15.6909L37.9465 15.1063C38.3832 14.6679 38.6743 13.9372 38.6743 13.3526C38.6743 12.6219 38.3832 12.0374 37.9465 11.599L31.1045 4.73045C30.6678 4.29203 29.9399 3.99976 29.3576 3.99976C28.6297 3.99976 28.0475 4.29203 27.6108 4.73045L10.2874 22.121C9.85072 22.5594 9.55957 23.2901 9.55957 23.8747C9.55957 24.6054 9.85072 25.1899 10.2874 25.6283L27.6108 43.0189C28.0475 43.4573 28.7753 43.7496 29.3576 43.7496C29.9399 43.7496 30.6678 43.4573 31.1045 43.0189L35.3261 38.7809C35.7629 38.3424 36.054 37.6117 36.054 37.0272C36.054 36.4426 35.7629 35.7119 35.3261 35.2735L31.8324 31.7662L37.9465 25.6283C38.3832 25.1899 38.6743 24.4592 38.6743 23.8747C38.6743 23.144 38.3832 22.5594 37.9465 22.121L30.8134 15.2525ZM29.212 28.9895C29.212 28.9895 29.0665 29.1357 28.9209 29.1357C28.7753 29.1357 28.7753 29.1357 28.6297 28.9895L23.9714 24.3131C23.9714 24.3131 23.8258 24.167 23.8258 24.0208C23.8258 23.8747 23.8258 23.8747 23.9714 23.7285L28.6297 19.0521C28.6297 19.0521 28.7753 18.9059 28.9209 18.9059C29.0665 18.9059 29.0665 18.906 29.212 19.0521L33.8704 23.7285C33.8704 23.7285 34.016 23.8747 34.016 24.0208C34.016 24.167 34.016 24.1669 33.8704 24.3131L29.212 28.9895Z" fill="white"/>
<path d="M46.2429 33.0817C46.2429 33.2278 46.2429 33.2278 46.2429 33.2278C46.2429 33.2278 46.0973 33.2278 45.9518 33.2278H44.7872C44.6416 33.2278 44.6416 33.2278 44.6416 33.2278V33.0817V25.9209C44.6416 25.7747 44.6416 25.4825 44.7872 25.3363C44.9328 25.1902 45.0783 25.1902 45.3695 25.1902H48.2809C48.7177 25.1902 49.0088 25.1902 49.4456 25.3363C49.7367 25.4825 50.0278 25.6286 50.319 25.9209C50.6101 26.2132 50.7557 26.3593 50.9013 26.7977C51.0469 27.09 51.0468 27.3823 51.0468 27.8207C51.0468 27.9669 51.0469 28.2591 50.9013 28.5514C50.9013 28.8437 50.7557 29.1359 50.4646 29.4282C50.319 29.7205 50.0278 30.0128 49.5911 30.1589C49.1544 30.305 48.7177 30.4512 47.9898 30.4512H46.2429V33.0817ZM48.8632 27.8207C48.8632 27.6746 48.8632 27.5284 48.8632 27.5284C48.8632 27.3823 48.7177 27.2361 48.7177 27.2361C48.5721 27.09 48.5721 27.09 48.4265 26.9439C48.281 26.7977 48.1354 26.7977 47.8442 26.7977H46.3885V28.9898H47.8442C48.281 28.9898 48.5721 28.8437 48.7177 28.6975C48.7177 28.4052 48.8632 28.113 48.8632 27.8207Z" fill="white"/>
<path d="M57.7438 33.2274H57.5982H54.1044C53.6677 33.2274 53.3766 33.2274 53.0854 33.0813C52.7943 32.9351 52.6487 32.789 52.5031 32.6429C52.3575 32.4967 52.212 32.2045 52.212 31.9122C52.212 31.6199 52.0664 31.3276 52.0664 31.1815V27.3819C52.0664 27.0896 52.0664 26.7973 52.212 26.6512C52.3576 26.3589 52.3575 26.2128 52.6487 25.9205C52.7943 25.7743 53.0854 25.6282 53.3766 25.4821C53.6677 25.3359 53.9589 25.3359 54.3956 25.3359H57.7438C57.8893 25.3359 57.8894 25.3359 57.8894 25.3359C57.8894 25.3359 57.8894 25.4821 57.8894 25.6282V26.6512C57.8894 26.7973 57.8894 26.7973 57.8894 26.7973H57.7438H54.8323C54.5412 26.7973 54.3956 26.7973 54.25 26.9435C54.1044 27.0896 54.1044 27.2357 54.1044 27.528V28.4049H57.4527C57.5982 28.4049 57.5982 28.4049 57.5982 28.4049C57.5982 28.4049 57.5982 28.551 57.5982 28.6971V29.574C57.5982 29.7201 57.5982 29.7201 57.5982 29.7201H57.4527H54.1044V31.0353C54.1044 31.3276 54.1044 31.4738 54.25 31.6199C54.3956 31.766 54.5412 31.766 54.8323 31.766H57.8894C58.0349 31.766 58.0349 31.766 58.0349 31.766C58.0349 31.766 58.0349 31.9122 58.0349 32.0583V33.0813C57.7438 33.0813 57.7438 33.2274 57.7438 33.2274Z" fill="white"/>
<path d="M65.7491 28.5509L65.1668 29.5739L64.1477 31.766C64.0022 31.9121 64.0022 32.0583 63.8566 32.2044C63.711 32.2044 63.5654 32.3505 63.4199 32.3505H62.8376C62.692 32.3505 62.5465 32.3505 62.4009 32.2044C62.2553 32.2044 62.2553 32.0582 62.1097 31.766L61.3818 30.3046L60.654 28.697V33.0812C60.654 33.2273 60.654 33.2273 60.654 33.2273H60.5084H59.3438C59.1983 33.2273 59.1982 33.2273 59.1982 33.2273V33.0812V25.9204C59.1982 25.6281 59.1983 25.482 59.3438 25.3358C59.4894 25.1897 59.635 25.1897 59.9261 25.1897H60.654C60.9451 25.1897 61.0907 25.1897 61.0907 25.3358C61.2363 25.482 61.2363 25.6281 61.3818 25.7742L62.692 28.5509L63.4199 30.1584L64.1477 28.4048L65.3124 25.7742C65.4579 25.6281 65.4579 25.482 65.6035 25.3358C65.7491 25.1897 65.8947 25.1897 66.1858 25.1897H66.7681C67.0592 25.1897 67.2048 25.1897 67.3504 25.3358C67.496 25.482 67.496 25.6281 67.496 25.9204V33.0812C67.496 33.2273 67.496 33.2273 67.496 33.2273H67.3504H66.1858C66.0402 33.2273 66.0402 33.2273 66.0402 33.2273V33.0812V28.5509H65.7491Z" fill="white"/>
<path d="M76.0862 29.1357C76.0862 29.8664 76.0862 30.451 75.9406 30.8894C75.7951 31.4739 75.5039 31.9124 75.2128 32.2047C74.9216 32.6431 74.4849 32.7892 74.0482 33.0815C73.6115 33.2276 73.0292 33.3737 72.4469 33.3737C71.2823 33.3737 70.4089 32.9353 69.8266 32.2047C69.2443 31.474 68.9531 30.451 68.9531 29.1357C68.9531 28.5512 69.0987 27.9666 69.2442 27.382C69.3898 26.7975 69.681 26.3591 69.9721 26.0668C70.2633 25.7745 70.7 25.4822 71.1367 25.19C71.5735 25.0438 72.0102 24.8977 72.5925 24.8977C73.1748 24.8977 73.7571 25.0438 74.1938 25.19C74.6305 25.3361 75.0672 25.6284 75.3584 26.0668C75.6495 26.3591 75.9407 26.7975 76.0862 27.382C76.0862 27.9666 76.0862 28.5512 76.0862 29.1357ZM74.1938 29.2819C74.1938 28.9896 74.1938 28.5512 74.0482 28.2589C74.0482 27.9666 73.9026 27.6743 73.757 27.382C73.6115 27.0898 73.4659 26.9436 73.1748 26.7975C72.8836 26.6514 72.5925 26.6513 72.3013 26.6513C72.0102 26.6513 71.719 26.6514 71.5734 26.7975C71.2823 26.9436 71.1367 27.0898 70.9911 27.382C70.8456 27.6743 70.7 27.8205 70.7 28.2589C70.7 28.5512 70.5544 28.8435 70.5544 29.2819C70.5544 29.7203 70.5544 30.0126 70.7 30.451C70.7 30.7432 70.8456 31.0355 70.9911 31.3278C71.1367 31.6201 71.2823 31.7662 71.5734 31.9124C71.8646 32.0585 72.0102 32.0585 72.4469 32.0585C72.738 32.0585 73.0292 31.9124 73.3203 31.9124C73.6115 31.7662 73.7571 31.6201 73.9026 31.3278C74.0482 31.0355 74.1938 30.7432 74.1938 30.451C74.1938 29.8664 74.1938 29.5742 74.1938 29.2819Z" fill="white"/>
<path d="M84.2382 33.2273C84.2382 33.2273 84.0927 33.2273 83.9471 33.2273H82.7825C82.6369 33.2273 82.6369 33.2273 82.6369 33.2273V33.0812V29.8662H79.4343V33.0812C79.4343 33.2273 79.4343 33.2273 79.4343 33.2273C79.4343 33.2273 79.2887 33.2273 79.1432 33.2273H77.9785C77.833 33.2273 77.833 33.2273 77.833 33.2273V33.0812V25.3358C77.833 25.1897 77.833 25.1897 77.833 25.1897H77.9785H79.1432C79.2887 25.1897 79.2887 25.1897 79.4343 25.1897V25.3358V28.2586H82.6369V25.3358C82.6369 25.1897 82.6369 25.1897 82.6369 25.1897H82.7825H83.9471C84.0927 25.1897 84.0927 25.1897 84.2382 25.1897V25.3358V33.0812C84.2382 33.2273 84.2382 33.2273 84.2382 33.2273Z" fill="white"/>
<path d="M91.5165 26.6511H89.4785V33.0812C89.4785 33.2273 89.4785 33.2273 89.4785 33.2273C89.4785 33.2273 89.3329 33.2273 89.1873 33.2273H87.8772C87.7316 33.2273 87.7316 33.2273 87.7316 33.2273V33.0812V26.6511H85.548C85.4024 26.6511 85.2568 26.505 85.2568 26.3588V25.3358C85.2568 25.1897 85.2568 25.1897 85.2568 25.1897H85.4024H91.371C91.5165 25.1897 91.5165 25.1897 91.5165 25.1897V25.3358V26.3588C91.6621 26.505 91.6621 26.6511 91.5165 26.6511Z" fill="white"/>
<path d="M48.2809 21.3903C48.7177 21.3903 49.0088 21.3904 49.3 21.2442C49.5911 21.0981 49.8823 21.0981 50.1734 20.9519C50.319 20.9519 50.319 20.9519 50.4646 20.9519L50.6101 21.0981L51.0468 21.9749C51.0468 22.1211 51.1924 22.121 51.0468 22.2672C51.0468 22.2672 51.0469 22.4133 50.9013 22.4133C50.4646 22.7056 50.0278 22.8517 49.5911 22.9979C49.1544 23.144 48.7177 23.144 48.2809 23.144C47.6987 23.144 47.1163 22.9979 46.6796 22.8517C46.2429 22.7056 45.8062 22.4133 45.5151 21.9749C45.2239 21.6826 44.9328 21.2442 44.7872 20.6596C44.6416 20.0751 44.6416 19.4905 44.6416 18.906C44.6416 18.3214 44.7872 17.7369 44.9328 17.1523C45.0783 16.5677 45.3695 16.1293 45.6606 15.8371C45.9518 15.3986 46.3885 15.1064 46.8252 14.9602C47.2619 14.8141 47.8442 14.668 48.2809 14.668C48.7177 14.668 49.0088 14.6679 49.4456 14.8141C49.8823 14.8141 50.1734 14.9602 50.6101 15.2525C50.7557 15.2525 50.7557 15.3987 50.7557 15.3987C50.7557 15.3987 50.7557 15.5448 50.7557 15.6909L50.4646 16.5678C50.4646 16.7139 50.319 16.7139 50.319 16.7139C50.319 16.7139 50.1734 16.7139 50.0278 16.7139C49.7367 16.5678 49.4456 16.5677 49.3 16.4216C49.0088 16.4216 48.8633 16.2755 48.5721 16.2755C48.281 16.2755 47.9898 16.2755 47.6987 16.4216C47.4075 16.5677 47.2619 16.7139 47.1164 17.0062C46.9708 17.2984 46.8252 17.5907 46.6796 17.883C46.5341 18.1753 46.5341 18.6137 46.5341 18.906C46.5341 19.3444 46.5341 19.6367 46.6796 19.9289C46.6796 20.2212 46.8252 20.5135 46.9708 20.8058C47.1164 21.0981 47.4075 21.2442 47.5531 21.3903C47.5531 21.2442 47.9898 21.3903 48.2809 21.3903Z" fill="white"/>
<path d="M56.4329 21.0981H53.8126L53.3758 22.5595C53.3758 22.7056 53.3758 22.7056 53.2303 22.7056C53.2303 22.7056 53.0847 22.7056 52.9391 22.7056H51.629C51.4834 22.7056 51.4834 22.7056 51.4834 22.7056V22.5595L53.9581 15.2525C53.9581 15.1064 54.1037 14.9602 54.1037 14.9602C54.1037 14.8141 54.2493 14.8141 54.2493 14.8141C54.2493 14.8141 54.3949 14.668 54.5405 14.668C54.686 14.668 54.686 14.668 54.8316 14.668H55.5594C55.705 14.668 55.8506 14.668 55.8506 14.668C55.9962 14.668 55.9962 14.6679 56.1417 14.8141L56.2873 14.9602C56.2873 15.1064 56.4329 15.1064 56.4329 15.2525L58.9077 22.5595V22.7056C58.9077 22.7056 58.9077 22.8517 58.7621 22.8517H57.3063C57.1608 22.8517 57.1608 22.8517 57.1608 22.8517C57.1608 22.8517 57.0152 22.8518 57.0152 22.7056L56.4329 21.0981ZM54.1037 19.6367H55.9962L55.5594 18.1753L55.1227 16.5678L54.686 18.1753L54.1037 19.6367Z" fill="white"/>
<path d="M66.332 22.7056C66.332 22.7056 66.1864 22.7056 66.0409 22.7056H64.8763C64.7307 22.7056 64.7307 22.7056 64.7307 22.7056V22.5595V19.3444H61.5281V22.5595C61.5281 22.7056 61.5281 22.7056 61.5281 22.7056C61.5281 22.7056 61.3825 22.7056 61.2369 22.7056H60.0723C59.9268 22.7056 59.9268 22.7056 59.9268 22.7056V22.5595V14.8141C59.9268 14.6679 59.9268 14.668 59.9268 14.668H60.0723H61.2369C61.3825 14.668 61.3825 14.668 61.5281 14.668V14.8141V17.7369H64.7307V14.8141C64.7307 14.6679 64.7307 14.668 64.7307 14.668H64.8763H66.0409C66.1864 14.668 66.1864 14.668 66.332 14.668V14.8141V22.5595C66.4776 22.7056 66.4776 22.7056 66.332 22.7056Z" fill="white"/>
<path d="M73.6102 16.1294H71.5721V22.5595C71.5721 22.7056 71.5721 22.7056 71.5721 22.7056C71.5721 22.7056 71.4266 22.7056 71.281 22.7056H69.9708C69.8252 22.7056 69.8253 22.7056 69.8253 22.7056V22.5595V16.1294H67.7872C67.6416 16.1294 67.4961 15.9832 67.4961 15.8371V14.8141C67.4961 14.6679 67.4961 14.668 67.4961 14.668H67.6417H73.6102C73.7557 14.668 73.7557 14.668 73.7557 14.668V14.8141V15.8371C73.9013 16.1293 73.7557 16.1294 73.6102 16.1294Z" fill="white"/>
<path d="M80.5983 22.7056H80.4528H76.959C76.5223 22.7056 76.2311 22.7056 75.94 22.5595C75.6488 22.4133 75.5032 22.2672 75.2121 22.121C75.0665 21.9749 74.921 21.6826 74.921 21.3903C74.921 21.098 74.7754 20.8058 74.7754 20.6596V16.8601C74.7754 16.5678 74.7754 16.2755 74.921 15.9832C75.0665 15.6909 75.0665 15.5448 75.3577 15.2525C75.5033 15.1064 75.7944 14.9602 76.0855 14.8141C76.3767 14.6679 76.6679 14.668 77.1046 14.668H80.4528C80.5983 14.668 80.5983 14.668 80.5983 14.668C80.5983 14.668 80.5983 14.8141 80.5983 14.9602V15.9832C80.5983 16.1293 80.5983 16.1294 80.5983 16.1294H80.4528H77.5413C77.2501 16.1294 77.1046 16.1293 76.959 16.2755C76.8134 16.4216 76.8134 16.5678 76.8134 16.8601V17.7369H80.1616C80.3072 17.7369 80.3072 17.7369 80.3072 17.7369C80.3072 17.7369 80.3072 17.883 80.3072 18.0291V18.906C80.3072 19.0521 80.3072 19.0521 80.3072 19.0521H80.1616H76.8134V20.3674C76.8134 20.6597 76.8134 20.8058 76.959 20.9519C77.1046 21.0981 77.2501 21.0981 77.5413 21.0981H80.5983C80.7439 21.0981 80.7439 21.0981 80.7439 21.0981C80.7439 21.0981 80.7439 21.2442 80.7439 21.3903V22.4133C80.5984 22.7056 80.5983 22.7056 80.5983 22.7056Z" fill="white"/>
<path d="M84.6744 20.075L83.2187 22.5594C83.2187 22.7055 83.0731 22.7055 83.0731 22.7055C83.0731 22.7055 82.9276 22.7055 82.782 22.7055H81.3262C81.3262 22.7055 81.1807 22.7055 81.1807 22.5594V22.4132L83.6554 18.4675L81.3262 14.814V14.6679L81.4718 14.5217H82.782C82.9276 14.5217 83.0731 14.5217 83.0731 14.5217L83.2187 14.6679L84.5288 17.0061L85.839 14.6679C85.839 14.5217 85.9846 14.5217 85.9846 14.5217C85.9846 14.5217 86.1302 14.5217 86.2757 14.5217H87.5859C87.7315 14.5217 87.7315 14.5217 87.7315 14.6679V14.814L85.5479 18.4675L88.0226 22.5594V22.7055C88.0226 22.7055 88.0226 22.8516 87.8771 22.8516H86.4213C86.2758 22.8516 86.1302 22.8516 86.1302 22.8516L85.9846 22.7055L84.6744 20.075Z" fill="white"/>
<path d="M95.883 22.5593C95.883 22.7054 95.883 22.7054 95.883 22.7054H95.7374H94.2817C94.1361 22.7054 93.9905 22.5593 93.9905 22.4131V15.983H90.7879V22.4131C90.7879 22.5593 90.7879 22.5593 90.7879 22.5593H90.6423H89.3322C89.1866 22.5593 89.041 22.4131 89.041 22.267V15.1062C89.041 14.8139 89.041 14.6678 89.1866 14.5216C89.3322 14.3755 89.4777 14.3755 89.7689 14.3755H95.0095C95.3007 14.3755 95.4463 14.3755 95.5918 14.5216C95.7374 14.6678 95.7374 14.8139 95.7374 15.1062V22.5593H95.883Z" fill="white"/>
<path d="M99.3777 22.5595C99.3777 22.7056 99.3777 22.7056 99.3777 22.7056C99.3777 22.7056 99.2321 22.7056 99.0865 22.7056H97.9219C97.7764 22.7056 97.7764 22.7056 97.7764 22.7056V22.5595V15.3987C97.7764 15.2525 97.7764 14.9602 97.9219 14.8141C98.0675 14.6679 98.2131 14.668 98.5042 14.668H101.416C101.852 14.668 102.144 14.6679 102.58 14.8141C102.871 14.9602 103.163 15.1064 103.454 15.3987C103.745 15.6909 103.89 15.8371 104.036 16.1294C104.182 16.4216 104.182 16.7139 104.182 17.1523C104.182 17.2984 104.182 17.5907 104.036 17.883C104.036 18.1753 103.89 18.4676 103.599 18.7598C103.454 19.0521 103.163 19.3444 102.726 19.4905C102.289 19.6367 101.852 19.7828 101.125 19.7828H99.5233V22.5595H99.3777ZM101.998 17.2985C101.998 17.1523 101.998 17.0062 101.998 17.0062C101.998 16.86 101.852 16.7139 101.852 16.7139C101.707 16.5678 101.707 16.5677 101.561 16.4216C101.416 16.4216 101.27 16.2755 100.979 16.2755H99.5233V18.4675H100.979C101.416 18.4675 101.707 18.3214 101.852 18.1753C101.852 17.883 101.998 17.5907 101.998 17.2985Z" fill="white"/>
<path d="M112.043 18.7598C112.043 19.4904 111.898 20.075 111.898 20.5134C111.752 21.098 111.461 21.5364 111.17 21.8287C110.879 22.2671 110.442 22.4132 110.005 22.7055C109.569 22.8517 108.986 22.9978 108.404 22.9978C107.239 22.9978 106.366 22.5594 105.784 21.8287C105.201 21.098 104.91 20.075 104.91 18.7598C104.91 18.1752 105.056 17.5906 105.201 17.0061C105.347 16.4215 105.638 15.9831 105.929 15.6908C106.22 15.3985 106.657 15.1063 107.094 14.814C107.53 14.6678 107.967 14.5217 108.55 14.5217C109.132 14.5217 109.714 14.6678 110.151 14.814C110.588 14.9601 111.024 15.2524 111.315 15.6908C111.607 15.9831 111.898 16.4215 112.043 17.0061C111.898 17.4445 112.043 18.0291 112.043 18.7598ZM110.151 18.7598C110.151 18.4675 110.151 18.029 110.005 17.7368C110.005 17.4445 109.86 17.1522 109.714 16.86C109.569 16.5677 109.423 16.4215 109.132 16.2754C108.841 16.1292 108.55 16.1293 108.258 16.1293C107.967 16.1293 107.676 16.1292 107.531 16.2754C107.239 16.4215 107.094 16.5677 106.948 16.86C106.803 17.1522 106.657 17.2983 106.657 17.7368C106.657 18.029 106.511 18.3213 106.511 18.7598C106.511 19.1982 106.511 19.4904 106.657 19.9288C106.657 20.2211 106.803 20.5134 106.948 20.8057C107.094 21.098 107.239 21.2441 107.531 21.3902C107.822 21.5364 107.967 21.5364 108.404 21.5364C108.695 21.5364 108.986 21.5364 109.277 21.3902C109.569 21.2441 109.714 21.098 109.86 20.8057C110.005 20.5134 110.151 20.2211 110.151 19.9288C110.151 19.3443 110.151 19.052 110.151 18.7598Z" fill="white"/>
<path d="M120.194 18.1752L119.612 19.1981L118.593 21.3902C118.448 21.5364 118.448 21.6825 118.302 21.8287C118.156 21.8287 118.011 21.9748 117.865 21.9748H117.283C117.137 21.9748 116.992 21.9748 116.846 21.8287C116.846 21.8287 116.701 21.6825 116.555 21.3902L115.827 19.9288L115.099 18.3213V22.7055C115.099 22.8516 115.099 22.8516 115.099 22.8516H114.954H113.789C113.644 22.8516 113.644 22.8516 113.644 22.8516V22.7055V15.5447C113.644 15.2524 113.644 15.1063 113.789 14.9601C113.935 14.814 114.08 14.814 114.371 14.814H115.099C115.39 14.814 115.536 14.814 115.536 14.9601C115.682 15.1063 115.682 15.2524 115.827 15.3986L117.137 18.1752L117.865 19.7827L118.593 18.029L119.758 15.3986C119.903 15.2524 119.903 15.1063 120.049 14.9601C120.194 14.814 120.34 14.814 120.631 14.814H121.213C121.505 14.814 121.65 14.814 121.796 14.9601C121.941 15.1063 121.941 15.2524 121.941 15.5447V22.7055C121.941 22.8516 121.941 22.8516 121.941 22.8516H121.796H120.486C120.34 22.8516 120.34 22.8516 120.34 22.8516V22.7055V18.1752H120.194Z" fill="white"/>
</svg>
