<svg width="60" height="48" viewBox="0 0 60 48" fill="none" xmlns="http://www.w3.org/2000/svg">
<rect x="0.5" y="0.5" width="59" height="47" rx="4.5" fill="white"/>
<path d="M36.7812 29.6289L33.1172 25.9648C33.9102 25.0078 34.3477 23.7773 34.3477 22.4375C34.3477 19.3203 31.7773 16.75 28.6602 16.75C25.5156 16.75 23 19.3203 23 22.4375C23 25.582 25.543 28.125 28.6602 28.125C29.9727 28.125 31.2031 27.6875 32.1875 26.8945L35.8516 30.5586C35.9883 30.6953 36.1523 30.75 36.3438 30.75C36.5078 30.75 36.6719 30.6953 36.7812 30.5586C37.0547 30.3125 37.0547 29.9023 36.7812 29.6289ZM24.3125 22.4375C24.3125 20.0312 26.2539 18.0625 28.6875 18.0625C31.0938 18.0625 33.0625 20.0312 33.0625 22.4375C33.0625 24.8711 31.0938 26.8125 28.6875 26.8125C26.2539 26.8125 24.3125 24.8711 24.3125 22.4375Z" fill="#005DB4"/>
<rect x="0.5" y="0.5" width="59" height="47" rx="4.5" stroke="#EAEAEA"/>
</svg>
