<svg width="51" height="48" viewBox="0 0 51 48" fill="none" xmlns="http://www.w3.org/2000/svg">
<path d="M18.5 18.75C18.5 18.3438 18.8125 18 19.25 18H31.75C32.1562 18 32.5 18.3438 32.5 18.75C32.5 19.1875 32.1562 19.5 31.75 19.5H19.25C18.8125 19.5 18.5 19.1875 18.5 18.75ZM18.5 23.75C18.5 23.3438 18.8125 23 19.25 23H31.75C32.1562 23 32.5 23.3438 32.5 23.75C32.5 24.1875 32.1562 24.5 31.75 24.5H19.25C18.8125 24.5 18.5 24.1875 18.5 23.75ZM31.75 29.5H19.25C18.8125 29.5 18.5 29.1875 18.5 28.75C18.5 28.3438 18.8125 28 19.25 28H31.75C32.1562 28 32.5 28.3438 32.5 28.75C32.5 29.1875 32.1562 29.5 31.75 29.5Z" fill="#005DB4"/>
<rect x="0.5" y="0.5" width="50" height="47" rx="4.5" stroke="#93B8DB"/>
</svg>
