<svg width="61" height="48" viewBox="0 0 61 48" fill="none" xmlns="http://www.w3.org/2000/svg">
<rect x="0.5" y="0.5" width="60" height="47" rx="4.5" fill="white"/>
<path d="M24.75 17.25C25.1562 17.25 25.5 17.5938 25.5 18C25.5 18.4375 25.1562 18.75 24.75 18.75H17.25C16.8125 18.75 16.5 18.4375 16.5 18C16.5 17.5938 16.8125 17.25 17.25 17.25H24.75ZM29.75 21.25C30.1562 21.25 30.5 21.5938 30.5 22C30.5 22.4375 30.1562 22.75 29.75 22.75H17.25C16.8125 22.75 16.5 22.4375 16.5 22C16.5 21.5938 16.8125 21.25 17.25 21.25H29.75ZM16.5 26C16.5 25.5938 16.8125 25.25 17.25 25.25H24.75C25.1562 25.25 25.5 25.5938 25.5 26C25.5 26.4375 25.1562 26.75 24.75 26.75H17.25C16.8125 26.75 16.5 26.4375 16.5 26ZM29.75 29.25C30.1562 29.25 30.5 29.5938 30.5 30C30.5 30.4375 30.1562 30.75 29.75 30.75H17.25C16.8125 30.75 16.5 30.4375 16.5 30C16.5 29.5938 16.8125 29.25 17.25 29.25H29.75Z" fill="#C4D7E8"/>
<path d="M39.316 19.252C40.2653 19.252 41.0173 19.4493 41.572 19.844C42.1267 20.2387 42.5213 20.8573 42.756 21.7C43.0013 22.5427 43.124 23.636 43.124 24.98C43.124 26.324 43.0013 27.4173 42.756 28.26C42.5213 29.1027 42.1267 29.7213 41.572 30.116C41.0173 30.5107 40.2653 30.708 39.316 30.708C38.3773 30.708 37.6307 30.5107 37.076 30.116C36.5213 29.7213 36.1213 29.1027 35.876 28.26C35.6413 27.4173 35.524 26.324 35.524 24.98C35.524 23.636 35.6413 22.5427 35.876 21.7C36.1213 20.8573 36.5213 20.2387 37.076 19.844C37.6307 19.4493 38.3773 19.252 39.316 19.252ZM39.316 20.484C38.8573 20.484 38.4733 20.5693 38.164 20.74C37.8547 20.9 37.604 21.156 37.412 21.508C37.2307 21.86 37.0973 22.324 37.012 22.9C36.9373 23.4653 36.9 24.1587 36.9 24.98C36.9 25.7907 36.9373 26.484 37.012 27.06C37.0973 27.636 37.2307 28.1 37.412 28.452C37.604 28.804 37.8547 29.0653 38.164 29.236C38.4733 29.396 38.8573 29.476 39.316 29.476C39.7747 29.476 40.1587 29.396 40.468 29.236C40.788 29.0653 41.0387 28.804 41.22 28.452C41.412 28.1 41.5453 27.636 41.62 27.06C41.7053 26.484 41.748 25.7907 41.748 24.98C41.748 24.1587 41.7053 23.4653 41.62 22.9C41.5453 22.324 41.412 21.86 41.22 21.508C41.0387 21.156 40.788 20.9 40.468 20.74C40.1587 20.5693 39.7747 20.484 39.316 20.484Z" fill="#005DB4"/>
<rect x="0.5" y="0.5" width="60" height="47" rx="4.5" stroke="#EAEAEA"/>
</svg>
