<svg width="61" height="48" viewBox="0 0 61 48" fill="none" xmlns="http://www.w3.org/2000/svg">
<rect width="61" height="48" rx="5" fill="#FE5603"/>
<path d="M23 10.5014C23 10.0861 23.3194 9.73478 23.7666 9.73478H36.5428C36.9581 9.73478 37.3094 10.0861 37.3094 10.5014C37.3094 10.9485 36.9581 11.2679 36.5428 11.2679H23.7666C23.3194 11.2679 23 10.9485 23 10.5014ZM23 15.6119C23 15.1966 23.3194 14.8453 23.7666 14.8453H32.4544C32.8697 14.8453 33.221 15.1966 33.221 15.6119C33.221 16.059 32.8697 16.3784 32.4544 16.3784H23.7666C23.3194 16.3784 23 16.059 23 15.6119ZM28.366 21.4889H23.7666C23.3194 21.4889 23 21.1695 23 20.7224C23 20.3071 23.3194 19.9558 23.7666 19.9558H28.366C28.7813 19.9558 29.1326 20.3071 29.1326 20.7224C29.1326 21.1695 28.7813 21.4889 28.366 21.4889Z" fill="white"/>
<path d="M17.25 37H16.0684L12.958 33.377V37H11.957V29.8613H12.958V33.3184L15.9951 29.8613H17.1133L14.0957 33.3184L17.25 37ZM20.1553 31.5264C20.8193 31.5264 21.3158 31.6745 21.6445 31.9707C21.9733 32.2637 22.1377 32.7275 22.1377 33.3623V37H21.4346L21.2441 36.2188H21.2051C21.0553 36.4141 20.8991 36.5768 20.7363 36.707C20.5736 36.8372 20.3848 36.9349 20.1699 37C19.9583 37.0651 19.6995 37.0977 19.3936 37.0977C19.068 37.0977 18.7783 37.0391 18.5244 36.9219C18.2705 36.8047 18.0703 36.6289 17.9238 36.3945C17.7806 36.1569 17.709 35.8558 17.709 35.4912C17.709 34.9443 17.9189 34.5293 18.3389 34.2461C18.7588 33.9629 19.3952 33.8083 20.248 33.7822L21.1758 33.7432V33.4404C21.1758 33.0205 21.0814 32.7243 20.8926 32.5518C20.707 32.3792 20.4466 32.293 20.1113 32.293C19.8346 32.293 19.5693 32.3337 19.3154 32.415C19.0615 32.4932 18.8174 32.5876 18.583 32.6982L18.2705 31.9854C18.5244 31.8551 18.8125 31.7461 19.1348 31.6582C19.4603 31.5703 19.8005 31.5264 20.1553 31.5264ZM21.166 34.3877L20.4141 34.4219C19.7923 34.4447 19.3545 34.5488 19.1006 34.7344C18.8499 34.9167 18.7246 35.1722 18.7246 35.501C18.7246 35.7874 18.8109 35.9974 18.9834 36.1309C19.1559 36.2643 19.3838 36.3311 19.667 36.3311C20.1032 36.3311 20.4613 36.209 20.7412 35.9648C21.0244 35.7174 21.166 35.3529 21.166 34.8711V34.3877ZM27.6455 32.415H25.8779V37H24.9014V32.415H23.1533V31.6191H27.6455V32.415ZM30.751 31.5264C31.415 31.5264 31.9115 31.6745 32.2402 31.9707C32.569 32.2637 32.7334 32.7275 32.7334 33.3623V37H32.0303L31.8398 36.2188H31.8008C31.651 36.4141 31.4948 36.5768 31.332 36.707C31.1693 36.8372 30.9805 36.9349 30.7656 37C30.554 37.0651 30.2952 37.0977 29.9893 37.0977C29.6637 37.0977 29.374 37.0391 29.1201 36.9219C28.8662 36.8047 28.666 36.6289 28.5195 36.3945C28.3763 36.1569 28.3047 35.8558 28.3047 35.4912C28.3047 34.9443 28.5146 34.5293 28.9346 34.2461C29.3545 33.9629 29.9909 33.8083 30.8438 33.7822L31.7715 33.7432V33.4404C31.7715 33.0205 31.6771 32.7243 31.4883 32.5518C31.3027 32.3792 31.0423 32.293 30.707 32.293C30.4303 32.293 30.165 32.3337 29.9111 32.415C29.6572 32.4932 29.4131 32.5876 29.1787 32.6982L28.8662 31.9854C29.1201 31.8551 29.4082 31.7461 29.7305 31.6582C30.056 31.5703 30.3962 31.5264 30.751 31.5264ZM31.7617 34.3877L31.0098 34.4219C30.388 34.4447 29.9502 34.5488 29.6963 34.7344C29.4456 34.9167 29.3203 35.1722 29.3203 35.501C29.3203 35.7874 29.4066 35.9974 29.5791 36.1309C29.7516 36.2643 29.9795 36.3311 30.2627 36.3311C30.6989 36.3311 31.057 36.209 31.3369 35.9648C31.6201 35.7174 31.7617 35.3529 31.7617 34.8711V34.3877ZM38.6074 37H37.6162V32.4102H36.0537C35.9886 33.2435 35.9072 33.9564 35.8096 34.5488C35.7119 35.138 35.5882 35.6198 35.4385 35.9941C35.292 36.3652 35.113 36.6387 34.9014 36.8145C34.6898 36.987 34.4342 37.0732 34.1348 37.0732C34.0273 37.0732 33.9264 37.0651 33.832 37.0488C33.7376 37.0358 33.6562 37.0146 33.5879 36.9854V36.2236C33.6367 36.2432 33.6888 36.2578 33.7441 36.2676C33.7995 36.2741 33.8581 36.2773 33.9199 36.2773C34.0534 36.2773 34.1755 36.2236 34.2861 36.1162C34.4001 36.0055 34.5026 35.8346 34.5938 35.6035C34.6882 35.3691 34.7728 35.0697 34.8477 34.7051C34.9258 34.3405 34.9941 33.9027 35.0527 33.3916C35.1113 32.8773 35.1634 32.2865 35.209 31.6191H38.6074V37ZM44.9844 34.2998C44.9844 34.7425 44.9258 35.138 44.8086 35.4863C44.6947 35.8314 44.527 36.1243 44.3057 36.3652C44.0876 36.6029 43.8239 36.7852 43.5146 36.9121C43.2054 37.0358 42.8555 37.0977 42.4648 37.0977C42.1003 37.0977 41.765 37.0358 41.459 36.9121C41.1562 36.7852 40.8942 36.6029 40.6729 36.3652C40.4515 36.1243 40.2806 35.8314 40.1602 35.4863C40.0397 35.138 39.9795 34.7425 39.9795 34.2998C39.9795 33.7106 40.0804 33.2093 40.2822 32.7959C40.484 32.3792 40.7721 32.0635 41.1465 31.8486C41.5241 31.6305 41.9733 31.5215 42.4941 31.5215C42.9889 31.5215 43.4235 31.6305 43.7979 31.8486C44.1722 32.0667 44.4635 32.3825 44.6719 32.7959C44.8802 33.2093 44.9844 33.7106 44.9844 34.2998ZM40.9854 34.2998C40.9854 34.7132 41.0374 35.0697 41.1416 35.3691C41.249 35.6654 41.4118 35.8932 41.6299 36.0527C41.8512 36.2122 42.1361 36.292 42.4844 36.292C42.8262 36.292 43.1077 36.2122 43.3291 36.0527C43.5505 35.8932 43.7132 35.6654 43.8174 35.3691C43.9215 35.0697 43.9736 34.7132 43.9736 34.2998C43.9736 33.8896 43.9215 33.5381 43.8174 33.2451C43.7132 32.9521 43.5505 32.7275 43.3291 32.5713C43.111 32.415 42.8262 32.3369 42.4746 32.3369C41.9603 32.3369 41.5827 32.5094 41.3418 32.8545C41.1042 33.1963 40.9854 33.6781 40.9854 34.2998ZM49.7256 31.6191V32.415H47.333V37H46.3467V31.6191H49.7256Z" fill="white"/>
</svg>
