<svg width="34" height="16" viewBox="0 0 34 16" fill="none" xmlns="http://www.w3.org/2000/svg">
<rect width="34" height="16" rx="5" fill="#FE5603"/>
<path d="M12.5645 13H10.9648L8.80859 9.49023L6.64062 13H5.13477L7.98242 8.55859L5.32812 4.43359H6.88086L8.87305 7.67969L10.8535 4.43359H12.3594L9.69336 8.59961L12.5645 13ZM13.7246 4.43359H15.0078V8.97461C15.0078 9.16992 15.0059 9.38477 15.002 9.61914C14.998 9.85352 14.9902 10.082 14.9785 10.3047C14.9707 10.5273 14.9629 10.7266 14.9551 10.9023C14.9473 11.0742 14.9395 11.1992 14.9316 11.2773H14.9727L19.332 4.43359H20.9668V13H19.6953V8.49414C19.6953 8.2832 19.6992 8.05469 19.707 7.80859C19.7148 7.5625 19.7246 7.32422 19.7363 7.09375C19.748 6.86328 19.7598 6.66016 19.7715 6.48438C19.7832 6.30859 19.791 6.18359 19.7949 6.10938H19.7422L15.3711 13H13.7246V4.43359ZM26.1934 13H24.7812V5.62891H22.2734V4.43359H28.6953V5.62891H26.1934V13Z" fill="#E8EEF1"/>
</svg>
