<svg width="65" height="13" viewBox="0 0 65 13" fill="none" xmlns="http://www.w3.org/2000/svg">
<path d="M2.83307 11.7982C2.83307 11.9961 2.83307 11.9961 2.83307 11.9961C2.83307 11.9961 2.63524 11.9961 2.43744 11.9961H0.855041C0.657239 11.9961 0.657227 11.9961 0.657227 11.9961V11.7982V2.1013C0.657227 1.9034 0.657239 1.50762 0.855041 1.30973C1.05284 1.11183 1.25063 1.11182 1.64624 1.11182H5.60229C6.1957 1.11182 6.59134 1.11183 7.18475 1.30973C7.58035 1.50762 7.97591 1.70551 8.37152 2.1013C8.76712 2.49709 8.96497 2.695 9.16277 3.28869C9.36058 3.68448 9.36053 4.0803 9.36053 4.67399C9.36053 4.87189 9.36058 5.26768 9.16277 5.66347C9.16277 6.05927 8.96494 6.45501 8.56933 6.8508C8.37153 7.2466 7.97591 7.64239 7.3825 7.84029C6.78909 8.03818 6.19573 8.23611 5.20672 8.23611H2.83307V11.7982ZM6.39349 4.67399C6.39349 4.47609 6.39349 4.27817 6.39349 4.27817C6.39349 4.08028 6.19573 3.88236 6.19573 3.88236C5.99793 3.68446 5.99791 3.6845 5.80011 3.4866C5.6023 3.2887 5.40451 3.28869 5.00891 3.28869H3.03088V6.25714H5.00891C5.60232 6.25714 5.99793 6.05922 6.19573 5.86132C6.19573 5.46553 6.39349 5.06978 6.39349 4.67399Z" fill="white"/>
<path d="M18.4584 11.9957H18.2606H13.5134C12.92 11.9957 12.5244 11.9957 12.1288 11.7978C11.7332 11.5999 11.5353 11.4021 11.3375 11.2042C11.1397 11.0063 10.942 10.6105 10.942 10.2147C10.942 9.81888 10.7441 9.42309 10.7441 9.22519V4.07987C10.7441 3.68407 10.7442 3.28828 10.942 3.09038C11.1398 2.69459 11.1397 2.49669 11.5353 2.1009C11.7331 1.903 12.1287 1.70513 12.5244 1.50723C12.92 1.30934 13.3156 1.30933 13.909 1.30933H18.4584C18.6562 1.30933 18.6562 1.30933 18.6562 1.30933C18.6562 1.30933 18.6562 1.50725 18.6562 1.70514V3.09038C18.6562 3.28828 18.6562 3.28829 18.6562 3.28829H18.4584H14.5024C14.1068 3.28829 13.909 3.2883 13.7112 3.4862C13.5134 3.6841 13.5134 3.88198 13.5134 4.27777V5.46517H18.0629C18.2607 5.46517 18.2606 5.46517 18.2606 5.46517C18.2606 5.46517 18.2606 5.66303 18.2606 5.86092V7.04831C18.2606 7.24621 18.2606 7.24622 18.2606 7.24622H18.0629H13.5134V9.02728C13.5134 9.42307 13.5134 9.62096 13.7112 9.81885C13.909 10.0168 14.1068 10.0168 14.5024 10.0168H18.6562C18.854 10.0168 18.8541 10.0168 18.8541 10.0168C18.8541 10.0168 18.8541 10.2147 18.8541 10.4126V11.7978C18.4585 11.7978 18.4584 11.9957 18.4584 11.9957Z" fill="white"/>
<path d="M29.3376 5.66299L28.5464 7.04823L27.1618 10.0167C26.964 10.2146 26.964 10.4125 26.7662 10.6104C26.5684 10.6104 26.3706 10.8082 26.1728 10.8082H25.3816C25.1838 10.8082 24.986 10.8083 24.7882 10.6104C24.5904 10.6104 24.5904 10.4125 24.3926 10.0167L23.4036 8.03771L22.4145 5.86083V11.7977C22.4145 11.9956 22.4145 11.9956 22.4145 11.9956H22.2167H20.6343C20.4365 11.9956 20.4365 11.9956 20.4365 11.9956V11.7977V2.10081C20.4365 1.70502 20.4365 1.50713 20.6343 1.30924C20.8321 1.11134 21.0299 1.11133 21.4255 1.11133H22.4145C22.8102 1.11133 23.008 1.11134 23.008 1.30924C23.2058 1.50713 23.2058 1.70501 23.4036 1.9029L25.1838 5.66299L26.1728 7.8398L27.1618 5.46508L28.7443 1.9029C28.9421 1.70501 28.942 1.50713 29.1398 1.30924C29.3376 1.11134 29.5355 1.11133 29.9311 1.11133H30.7223C31.1179 1.11133 31.3157 1.11134 31.5135 1.30924C31.7113 1.50713 31.7113 1.70502 31.7113 2.10081V11.7977C31.7113 11.9956 31.7113 11.9956 31.7113 11.9956H31.5135H29.9311C29.7333 11.9956 29.7333 11.9956 29.7333 11.9956V11.7977V5.66299H29.3376Z" fill="white"/>
<path d="M43.3827 6.45481C43.3827 7.44429 43.3827 8.23584 43.1849 8.82953C42.9871 9.62112 42.5915 10.2149 42.1959 10.6106C41.8003 11.2043 41.2069 11.4022 40.6135 11.798C40.0201 11.9959 39.2289 12.1938 38.4377 12.1938C36.8553 12.1938 35.6685 11.6001 34.8773 10.6106C34.086 9.62117 33.6904 8.23588 33.6904 6.45481C33.6904 5.66322 33.8882 4.87161 34.086 4.08003C34.2838 3.28844 34.6794 2.69476 35.075 2.29897C35.4706 1.90318 36.0641 1.50737 36.6575 1.11158C37.2509 0.913681 37.8443 0.71582 38.6355 0.71582C39.4267 0.71582 40.2179 0.913681 40.8113 1.11158C41.4047 1.30947 41.9981 1.70528 42.3937 2.29897C42.7893 2.69476 43.1849 3.28844 43.3827 4.08003C43.3827 4.87161 43.3827 5.66322 43.3827 6.45481ZM40.8113 6.65272C40.8113 6.25692 40.8113 5.66321 40.6135 5.26742C40.6135 4.87162 40.4157 4.47582 40.2179 4.08003C40.0201 3.68423 39.8223 3.48635 39.4267 3.28845C39.0311 3.09055 38.6355 3.09054 38.2399 3.09054C37.8443 3.09054 37.4487 3.09055 37.2509 3.28845C36.8552 3.48635 36.6575 3.68423 36.4597 4.08003C36.2619 4.47582 36.064 4.67373 36.064 5.26742C36.064 5.66321 35.8663 6.05903 35.8663 6.65272C35.8663 7.24641 35.8662 7.64218 36.064 8.23587C36.064 8.63166 36.2619 9.02746 36.4597 9.42326C36.6575 9.81905 36.8552 10.0169 37.2509 10.2148C37.6465 10.4127 37.8443 10.4127 38.4377 10.4127C38.8333 10.4127 39.2289 10.2148 39.6245 10.2148C40.0201 10.0169 40.2179 9.81905 40.4157 9.42326C40.6135 9.02746 40.8113 8.63166 40.8113 8.23587C40.8113 7.44428 40.8113 7.04851 40.8113 6.65272Z" fill="white"/>
<path d="M54.4611 11.9956C54.4611 11.9956 54.2633 11.9956 54.0655 11.9956H52.4831C52.2853 11.9956 52.2853 11.9956 52.2853 11.9956V11.7977V7.44404H47.9336V11.7977C47.9336 11.9956 47.9336 11.9956 47.9336 11.9956C47.9336 11.9956 47.7358 11.9956 47.538 11.9956H45.9556C45.7578 11.9956 45.7578 11.9956 45.7578 11.9956V11.7977V1.30924C45.7578 1.11134 45.7578 1.11133 45.7578 1.11133H45.9556H47.538C47.7358 1.11133 47.7358 1.11133 47.9336 1.11133V1.30924V5.26717H52.2853V1.30924C52.2853 1.11134 52.2853 1.11133 52.2853 1.11133H52.4831H54.0655C54.2633 1.11133 54.2633 1.11133 54.4611 1.11133V1.30924V11.7977C54.4611 11.9956 54.4611 11.9956 54.4611 11.9956Z" fill="white"/>
<path d="M64.3503 3.09029H61.581V11.7977C61.581 11.9956 61.581 11.9956 61.581 11.9956C61.581 11.9956 61.3832 11.9956 61.1854 11.9956H59.4052C59.2074 11.9956 59.2074 11.9956 59.2074 11.9956V11.7977V3.09029H56.2404C56.0426 3.09029 55.8447 2.89243 55.8447 2.69454V1.30924C55.8447 1.11134 55.8447 1.11133 55.8447 1.11133H56.0425H64.1525C64.3503 1.11133 64.3503 1.11133 64.3503 1.11133V1.30924V2.69454C64.5481 2.89243 64.5481 3.09029 64.3503 3.09029Z" fill="white"/>
</svg>
