<svg width="124" height="45" viewBox="0 0 124 45" fill="none" xmlns="http://www.w3.org/2000/svg">
<path d="M23.7704 13.2005C23.2917 12.7164 22.494 12.3937 21.8558 12.3937C21.058 12.3937 20.4198 12.7164 19.9411 13.2005L12.4421 20.7845C11.9634 21.2686 11.6443 22.0754 11.6443 22.7208C11.6443 23.5277 11.9634 24.1731 12.4421 24.6572L24.5682 36.9207C24.5682 36.9207 24.7277 37.082 24.7277 37.2434C24.7277 37.4048 24.7277 37.4048 24.5682 37.5662L22.3344 39.8252C22.3344 39.8252 22.1748 39.9866 22.0153 39.9866C21.8557 39.9866 21.8558 39.9866 21.6962 39.8252L5.10267 23.0436C5.10267 23.0436 4.94311 22.8822 4.94311 22.7208C4.94311 22.5595 4.94312 22.5595 5.10267 22.3981L21.6962 5.61649C21.6962 5.61649 21.8557 5.45512 22.0153 5.45512C22.1748 5.45512 22.1749 5.45513 22.3344 5.61649L30.3121 13.6846C30.3121 13.6846 30.4717 13.8459 30.6312 13.8459C30.7908 13.8459 30.7907 13.8459 30.9503 13.6846L31.5885 13.0391C32.0672 12.5551 32.3863 11.7482 32.3863 11.1028C32.3863 10.296 32.0672 9.65055 31.5885 9.16647L24.0895 1.58244C23.6109 1.09836 22.8131 0.775635 22.1749 0.775635C21.3771 0.775635 20.7389 1.09836 20.2602 1.58244L1.27335 20.7845C0.794693 21.2686 0.475586 22.0754 0.475586 22.7208C0.475586 23.5277 0.794693 24.1731 1.27335 24.6572L20.2602 43.8593C20.7389 44.3433 21.5366 44.6661 22.1749 44.6661C22.8131 44.6661 23.6109 44.3433 24.0895 43.8593L28.7166 39.1798C29.1952 38.6957 29.5143 37.8889 29.5143 37.2434C29.5143 36.598 29.1952 35.7911 28.7166 35.307L24.8873 31.4344L31.5885 24.6572C32.0672 24.1731 32.3863 23.3663 32.3863 22.7208C32.3863 21.914 32.0672 21.2686 31.5885 20.7845L23.7704 13.2005ZM22.0153 28.3685C22.0153 28.3685 21.8558 28.5299 21.6962 28.5299C21.5367 28.5299 21.5366 28.5299 21.3771 28.3685L16.2714 23.2049C16.2714 23.2049 16.1118 23.0436 16.1118 22.8822C16.1118 22.7209 16.1119 22.7208 16.2714 22.5595L21.3771 17.3959C21.3771 17.3959 21.5367 17.2346 21.6962 17.2346C21.8558 17.2346 21.8557 17.2346 22.0153 17.3959L27.121 22.5595C27.121 22.5595 27.2806 22.7209 27.2806 22.8822C27.2806 23.0436 27.2806 23.0436 27.121 23.2049L22.0153 28.3685Z" fill="white"/>
<path d="M40.6828 32.8869C40.6828 33.0482 40.6828 33.0482 40.6828 33.0482C40.6828 33.0482 40.5233 33.0482 40.3637 33.0482H39.0873C38.9277 33.0482 38.9277 33.0482 38.9277 33.0482V32.8869V24.9801C38.9277 24.8188 38.9277 24.4961 39.0873 24.3347C39.2469 24.1733 39.4064 24.1733 39.7255 24.1733H42.9166C43.3952 24.1733 43.7144 24.1733 44.193 24.3347C44.5121 24.4961 44.8312 24.6574 45.1503 24.9801C45.4694 25.3029 45.629 25.4642 45.7886 25.9483C45.9481 26.2711 45.9481 26.5938 45.9481 27.0779C45.9481 27.2392 45.9481 27.562 45.7886 27.8847C45.7886 28.2074 45.629 28.5301 45.3099 28.8528C45.1503 29.1755 44.8312 29.4983 44.3525 29.6596C43.8739 29.821 43.3953 29.9824 42.5975 29.9824H40.6828V32.8869ZM43.5548 27.0779C43.5548 26.9165 43.5548 26.7551 43.5548 26.7551C43.5548 26.5938 43.3953 26.4324 43.3953 26.4324C43.2357 26.271 43.2357 26.2711 43.0761 26.1097C42.9166 25.9483 42.757 25.9483 42.4379 25.9483H40.8424V28.3688H42.4379C42.9166 28.3688 43.2357 28.2074 43.3953 28.046C43.3953 27.7233 43.5548 27.4006 43.5548 27.0779Z" fill="white"/>
<path d="M53.287 33.048H53.1275H49.2982C48.8195 33.048 48.5005 33.048 48.1813 32.8866C47.8622 32.7253 47.7026 32.5639 47.5431 32.4026C47.3835 32.2412 47.224 31.9185 47.224 31.5958C47.224 31.273 47.0645 30.9503 47.0645 30.7889V26.5935C47.0645 26.2708 47.0645 25.9481 47.224 25.7867C47.3836 25.464 47.3836 25.3026 47.7027 24.9799C47.8622 24.8185 48.1813 24.6572 48.5004 24.4958C48.8195 24.3345 49.1387 24.3345 49.6173 24.3345H53.287C53.4466 24.3345 53.4466 24.3345 53.4466 24.3345C53.4466 24.3345 53.4466 24.4959 53.4466 24.6572V25.7867C53.4466 25.9481 53.4466 25.9481 53.4466 25.9481H53.287H50.096C49.7769 25.9481 49.6173 25.9481 49.4578 26.1095C49.2982 26.2708 49.2982 26.4322 49.2982 26.7549V27.7231H52.9679C53.1275 27.7231 53.1275 27.7231 53.1275 27.7231C53.1275 27.7231 53.1275 27.8844 53.1275 28.0458V29.014C53.1275 29.1753 53.1275 29.1753 53.1275 29.1753H52.9679H49.2982V30.6276C49.2982 30.9503 49.2982 31.1116 49.4578 31.273C49.6173 31.4344 49.7769 31.4344 50.096 31.4344H53.4466C53.6061 31.4344 53.6062 31.4344 53.6062 31.4344C53.6062 31.4344 53.6062 31.5958 53.6062 31.7571V32.8866C53.287 32.8866 53.287 33.048 53.287 33.048Z" fill="white"/>
<path d="M62.0627 27.8844L61.4245 29.014L60.3076 31.4344C60.1481 31.5957 60.1481 31.7571 59.9885 31.9185C59.829 31.9185 59.6694 32.0798 59.5099 32.0798H58.8716C58.7121 32.0798 58.5526 32.0799 58.393 31.9185C58.2335 31.9185 58.2334 31.7571 58.0739 31.4344L57.2761 29.8208L56.4783 28.0458V32.8866C56.4783 33.048 56.4783 33.048 56.4783 33.048H56.3188H55.0424C54.8828 33.048 54.8828 33.048 54.8828 33.048V32.8866V24.9799C54.8828 24.6572 54.8828 24.4958 55.0424 24.3345C55.2019 24.1731 55.3615 24.1731 55.6806 24.1731H56.4783C56.7975 24.1731 56.957 24.1731 56.957 24.3345C57.1166 24.4958 57.1166 24.6572 57.2761 24.8185L58.7121 27.8844L59.5099 29.6594L60.3076 27.7231L61.5841 24.8185C61.7436 24.6572 61.7436 24.4958 61.9032 24.3345C62.0627 24.1731 62.2223 24.1731 62.5414 24.1731H63.1796C63.4987 24.1731 63.6583 24.1731 63.8178 24.3345C63.9774 24.4958 63.9774 24.6572 63.9774 24.9799V32.8866C63.9774 33.048 63.9774 33.048 63.9774 33.048H63.8178H62.5414C62.3819 33.048 62.3818 33.048 62.3818 33.048V32.8866V27.8844H62.0627Z" fill="white"/>
<path d="M73.3914 28.5301C73.3914 29.3369 73.3913 29.9823 73.2318 30.4664C73.0722 31.1118 72.7531 31.596 72.434 31.9187C72.1149 32.4028 71.6363 32.5641 71.1576 32.8868C70.679 33.0482 70.0407 33.2096 69.4025 33.2096C68.1261 33.2096 67.1688 32.7255 66.5306 31.9187C65.8924 31.1119 65.5732 29.9823 65.5732 28.5301C65.5732 27.8846 65.7328 27.2392 65.8923 26.5937C66.0519 25.9483 66.371 25.4642 66.6901 25.1415C67.0092 24.8187 67.4879 24.496 67.9665 24.1733C68.4452 24.0119 68.9239 23.8506 69.5621 23.8506C70.2003 23.8506 70.8385 24.0119 71.3172 24.1733C71.7958 24.3346 72.2745 24.6574 72.5936 25.1415C72.9127 25.4642 73.2318 25.9483 73.3914 26.5937C73.3914 27.2392 73.3914 27.8846 73.3914 28.5301ZM71.3172 28.6914C71.3172 28.3687 71.3172 27.8846 71.1576 27.5619C71.1576 27.2392 70.998 26.9164 70.8385 26.5937C70.6789 26.271 70.5194 26.1096 70.2003 25.9483C69.8812 25.7869 69.5621 25.7869 69.243 25.7869C68.9238 25.7869 68.6047 25.7869 68.4452 25.9483C68.1261 26.1096 67.9665 26.271 67.807 26.5937C67.6474 26.9164 67.4879 27.0778 67.4879 27.5619C67.4879 27.8846 67.3283 28.2074 67.3283 28.6914C67.3283 29.1755 67.3283 29.4982 67.4879 29.9823C67.4879 30.305 67.6474 30.6278 67.807 30.9505C67.9665 31.2732 68.1261 31.4346 68.4452 31.5959C68.7643 31.7573 68.9239 31.7573 69.4025 31.7573C69.7216 31.7573 70.0407 31.5959 70.3598 31.5959C70.679 31.4346 70.8385 31.2732 70.998 30.9505C71.1576 30.6278 71.3172 30.305 71.3172 29.9823C71.3172 29.3369 71.3172 29.0142 71.3172 28.6914Z" fill="white"/>
<path d="M82.327 33.048C82.327 33.048 82.1674 33.048 82.0079 33.048H80.7314C80.5719 33.048 80.5719 33.048 80.5719 33.048V32.8866V29.3367H77.0617V32.8866C77.0617 33.048 77.0617 33.048 77.0617 33.048C77.0617 33.048 76.9022 33.048 76.7426 33.048H75.4662C75.3066 33.048 75.3066 33.048 75.3066 33.048V32.8866V24.3345C75.3066 24.1731 75.3066 24.1731 75.3066 24.1731H75.4662H76.7426C76.9022 24.1731 76.9021 24.1731 77.0617 24.1731V24.3345V27.5617H80.5719V24.3345C80.5719 24.1731 80.5719 24.1731 80.5719 24.1731H80.7314H82.0079C82.1674 24.1731 82.1674 24.1731 82.327 24.1731V24.3345V32.8866C82.327 33.048 82.327 33.048 82.327 33.048Z" fill="white"/>
<path d="M90.3042 25.7867H88.0704V32.8866C88.0704 33.048 88.0704 33.048 88.0704 33.048C88.0704 33.048 87.9109 33.048 87.7513 33.048H86.3154C86.1558 33.048 86.1558 33.048 86.1558 33.048V32.8866V25.7867H83.7625C83.6029 25.7867 83.4434 25.6254 83.4434 25.464V24.3345C83.4434 24.1731 83.4434 24.1731 83.4434 24.1731H83.6029H90.1446C90.3042 24.1731 90.3042 24.1731 90.3042 24.1731V24.3345V25.464C90.4637 25.6254 90.4637 25.7867 90.3042 25.7867Z" fill="white"/>
<path d="M42.9166 19.9775C43.3952 19.9775 43.7144 19.9776 44.0335 19.8162C44.3526 19.6549 44.6717 19.6548 44.9908 19.4935C45.1503 19.4935 45.1503 19.4935 45.3099 19.4935L45.4694 19.6548L45.9481 20.623C45.9481 20.7844 46.1076 20.7844 45.9481 20.9457C45.9481 20.9457 45.9481 21.1071 45.7886 21.1071C45.3099 21.4298 44.8312 21.5912 44.3525 21.7525C43.8739 21.9139 43.3952 21.9139 42.9166 21.9139C42.2784 21.9139 41.6401 21.7525 41.1615 21.5912C40.6828 21.4298 40.2042 21.1071 39.8851 20.623C39.566 20.3003 39.2469 19.8162 39.0873 19.1707C38.9277 18.5253 38.9277 17.8799 38.9277 17.2344C38.9277 16.589 39.0873 15.9435 39.2469 15.2981C39.4064 14.6526 39.7255 14.1685 40.0446 13.8458C40.3637 13.3617 40.8424 13.039 41.321 12.8776C41.7997 12.7163 42.4379 12.5549 42.9166 12.5549C43.3952 12.5549 43.7144 12.5549 44.193 12.7163C44.6717 12.7163 44.9908 12.8776 45.4694 13.2004C45.629 13.2004 45.629 13.3617 45.629 13.3617C45.629 13.3617 45.629 13.5231 45.629 13.6844L45.3099 14.6526C45.3099 14.814 45.1503 14.814 45.1503 14.814C45.1503 14.814 44.9908 14.814 44.8312 14.814C44.5121 14.6526 44.193 14.6526 44.0335 14.4912C43.7144 14.4912 43.5548 14.3299 43.2357 14.3299C42.9166 14.3299 42.5975 14.3299 42.2784 14.4912C41.9593 14.6526 41.7997 14.814 41.6402 15.1367C41.4806 15.4594 41.321 15.7821 41.1615 16.1049C41.0019 16.4276 41.002 16.9117 41.002 17.2344C41.002 17.7185 41.0019 18.0412 41.1615 18.3639C41.1615 18.6866 41.321 19.0094 41.4806 19.3321C41.6402 19.6548 41.9592 19.8162 42.1188 19.9775C42.1188 19.8162 42.5975 19.9775 42.9166 19.9775Z" fill="white"/>
<path d="M51.8506 19.6548H48.9786L48.5 21.2685C48.5 21.4298 48.4999 21.4298 48.3404 21.4298C48.3404 21.4298 48.1809 21.4298 48.0213 21.4298H46.5853C46.4258 21.4298 46.4258 21.4298 46.4258 21.4298V21.2685L49.1382 13.2004C49.1382 13.039 49.2977 12.8776 49.2977 12.8776C49.2977 12.7163 49.4573 12.7163 49.4573 12.7163C49.4573 12.7163 49.6169 12.5549 49.7764 12.5549C49.936 12.5549 49.9359 12.5549 50.0955 12.5549H50.8933C51.0528 12.5549 51.2124 12.5549 51.2124 12.5549C51.3719 12.5549 51.3719 12.5549 51.5315 12.7163L51.691 12.8776C51.691 13.039 51.8506 13.039 51.8506 13.2004L54.563 21.2685V21.4298C54.563 21.4298 54.563 21.5912 54.4035 21.5912H52.8079C52.6484 21.5912 52.6484 21.5912 52.6484 21.5912C52.6484 21.5912 52.4888 21.5912 52.4888 21.4298L51.8506 19.6548ZM49.2977 18.0412H51.3719L50.8933 16.4276L50.4146 14.6526L49.9359 16.4276L49.2977 18.0412Z" fill="white"/>
<path d="M62.701 21.4298C62.701 21.4298 62.5415 21.4298 62.3819 21.4298H61.1055C60.9459 21.4298 60.946 21.4298 60.946 21.4298V21.2685V17.7185H57.4358V21.2685C57.4358 21.4298 57.4358 21.4298 57.4358 21.4298C57.4358 21.4298 57.2762 21.4298 57.1166 21.4298H55.8402C55.6807 21.4298 55.6807 21.4298 55.6807 21.4298V21.2685V12.7163C55.6807 12.5549 55.6807 12.5549 55.6807 12.5549H55.8402H57.1166C57.2762 12.5549 57.2762 12.5549 57.4358 12.5549V12.7163V15.9435H60.946V12.7163C60.946 12.5549 60.946 12.5549 60.946 12.5549H61.1055H62.3819C62.5415 12.5549 62.5415 12.5549 62.701 12.5549V12.7163V21.2685C62.8606 21.4298 62.8606 21.4298 62.701 21.4298Z" fill="white"/>
<path d="M70.6778 14.1685H68.444V21.2685C68.444 21.4298 68.444 21.4298 68.444 21.4298C68.444 21.4298 68.2845 21.4298 68.125 21.4298H66.6889C66.5294 21.4298 66.5294 21.4298 66.5294 21.4298V21.2685V14.1685H64.2956C64.1361 14.1685 63.9766 14.0072 63.9766 13.8458V12.7163C63.9766 12.5549 63.9766 12.5549 63.9766 12.5549H64.1361H70.6778C70.8373 12.5549 70.8373 12.5549 70.8373 12.5549V12.7163V13.8458C70.9969 14.1685 70.8373 14.1685 70.6778 14.1685Z" fill="white"/>
<path d="M78.3362 21.4298H78.1767H74.3474C73.8687 21.4298 73.5496 21.4298 73.2305 21.2685C72.9114 21.1071 72.7518 20.9457 72.4327 20.7843C72.2732 20.623 72.1137 20.3003 72.1137 19.9775C72.1137 19.6548 71.9541 19.3321 71.9541 19.1707V14.9754C71.9541 14.6526 71.9541 14.3299 72.1137 14.0072C72.2732 13.6845 72.2732 13.5231 72.5923 13.2004C72.7519 13.039 73.071 12.8776 73.3901 12.7163C73.7092 12.5549 74.0283 12.5549 74.507 12.5549H78.1767C78.3362 12.5549 78.3362 12.5549 78.3362 12.5549C78.3362 12.5549 78.3362 12.7163 78.3362 12.8776V14.0072C78.3362 14.1685 78.3362 14.1685 78.3362 14.1685H78.1767H74.9856C74.6665 14.1685 74.507 14.1685 74.3474 14.3299C74.1878 14.4912 74.1878 14.6526 74.1878 14.9754V15.9435H77.8575C78.0171 15.9435 78.0171 15.9435 78.0171 15.9435C78.0171 15.9435 78.0171 16.1049 78.0171 16.2662V17.2344C78.0171 17.3958 78.0171 17.3958 78.0171 17.3958H77.8575H74.1878V18.848C74.1878 19.1708 74.1878 19.3321 74.3474 19.4935C74.507 19.6548 74.6665 19.6548 74.9856 19.6548H78.3362C78.4958 19.6548 78.4958 19.6548 78.4958 19.6548C78.4958 19.6548 78.4958 19.8162 78.4958 19.9775V21.1071C78.3362 21.4298 78.3362 21.4298 78.3362 21.4298Z" fill="white"/>
<path d="M82.8039 18.5253L81.2083 21.2685C81.2083 21.4298 81.0488 21.4298 81.0488 21.4298C81.0488 21.4298 80.8893 21.4298 80.7297 21.4298H79.1342C79.1342 21.4298 78.9746 21.4298 78.9746 21.2685V21.1071L81.687 16.7503L79.1342 12.7162V12.5549L79.2937 12.3936H80.7297C80.8893 12.3936 81.0488 12.3936 81.0488 12.3936L81.2083 12.5549L82.6443 15.1367L84.0803 12.5549C84.0803 12.3936 84.2399 12.3936 84.2399 12.3936C84.2399 12.3936 84.3994 12.3936 84.559 12.3936H85.9949C86.1545 12.3936 86.1545 12.3936 86.1545 12.5549V12.7162L83.7612 16.7503L86.4736 21.2685V21.4298C86.4736 21.4298 86.4736 21.5911 86.3141 21.5911H84.7185C84.559 21.5911 84.3994 21.5911 84.3994 21.5911L84.2399 21.4298L82.8039 18.5253Z" fill="white"/>
<path d="M95.0898 21.2682C95.0898 21.4296 95.0898 21.4296 95.0898 21.4296H94.9303H93.3348C93.1752 21.4296 93.0156 21.2682 93.0156 21.1068V14.0069H89.5055V21.1068C89.5055 21.2682 89.5055 21.2682 89.5055 21.2682H89.3459H87.9099C87.7504 21.2682 87.5908 21.1068 87.5908 20.9455V13.0387C87.5908 12.716 87.5908 12.5547 87.7504 12.3933C87.9099 12.2319 88.0695 12.2319 88.3886 12.2319H94.1325C94.4516 12.2319 94.6112 12.2319 94.7707 12.3933C94.9303 12.5547 94.9303 12.716 94.9303 13.0387V21.2682H95.0898Z" fill="white"/>
<path d="M98.9201 21.2685C98.9201 21.4298 98.9201 21.4298 98.9201 21.4298C98.9201 21.4298 98.7606 21.4298 98.601 21.4298H97.3246C97.165 21.4298 97.165 21.4298 97.165 21.4298V21.2685V13.3617C97.165 13.2004 97.165 12.8776 97.3246 12.7163C97.4842 12.5549 97.6437 12.5549 97.9628 12.5549H101.154C101.633 12.5549 101.952 12.5549 102.43 12.7163C102.749 12.8776 103.069 13.039 103.388 13.3617C103.707 13.6845 103.866 13.8458 104.026 14.1685C104.185 14.4913 104.185 14.814 104.185 15.2981C104.185 15.4594 104.185 15.7821 104.026 16.1049C104.026 16.4276 103.866 16.7503 103.547 17.073C103.388 17.3958 103.069 17.7185 102.59 17.8799C102.111 18.0412 101.633 18.2026 100.835 18.2026H99.0797V21.2685H98.9201ZM101.792 15.4594C101.792 15.2981 101.792 15.1367 101.792 15.1367C101.792 14.9753 101.633 14.814 101.633 14.814C101.473 14.6526 101.473 14.6526 101.313 14.4912C101.154 14.4912 100.994 14.3299 100.675 14.3299H99.0797V16.7503H100.675C101.154 16.7503 101.473 16.589 101.633 16.4276C101.633 16.1049 101.792 15.7821 101.792 15.4594Z" fill="white"/>
<path d="M112.801 17.073C112.801 17.8798 112.641 18.5253 112.641 19.0094C112.481 19.6548 112.162 20.1389 111.843 20.4616C111.524 20.9457 111.045 21.1071 110.567 21.4298C110.088 21.5912 109.45 21.7525 108.812 21.7525C107.535 21.7525 106.578 21.2685 105.94 20.4616C105.302 19.6548 104.982 18.5253 104.982 17.073C104.982 16.4276 105.142 15.7821 105.302 15.1367C105.461 14.4912 105.78 14.0072 106.099 13.6844C106.418 13.3617 106.897 13.039 107.376 12.7162C107.854 12.5549 108.333 12.3936 108.971 12.3936C109.609 12.3936 110.248 12.5549 110.726 12.7162C111.205 12.8776 111.684 13.2003 112.003 13.6844C112.322 14.0072 112.641 14.4912 112.801 15.1367C112.641 15.6208 112.801 16.2662 112.801 17.073ZM110.726 17.073C110.726 16.7503 110.726 16.2662 110.567 15.9435C110.567 15.6208 110.407 15.2981 110.248 14.9754C110.088 14.6526 109.929 14.4912 109.61 14.3299C109.29 14.1685 108.971 14.1685 108.652 14.1685C108.333 14.1685 108.014 14.1685 107.854 14.3299C107.535 14.4912 107.376 14.6526 107.216 14.9754C107.057 15.2981 106.897 15.4594 106.897 15.9435C106.897 16.2662 106.738 16.589 106.738 17.073C106.738 17.5571 106.738 17.8798 106.897 18.3639C106.897 18.6866 107.057 19.0094 107.216 19.3321C107.376 19.6548 107.535 19.8162 107.854 19.9775C108.174 20.1389 108.333 20.1389 108.812 20.1389C109.131 20.1389 109.45 20.1389 109.769 19.9775C110.088 19.8162 110.248 19.6548 110.407 19.3321C110.567 19.0094 110.726 18.6866 110.726 18.3639C110.726 17.7185 110.726 17.3958 110.726 17.073Z" fill="white"/>
<path d="M121.736 16.4274L121.097 17.5569L119.981 19.9773C119.821 20.1387 119.821 20.3001 119.661 20.4615C119.502 20.4615 119.342 20.6228 119.183 20.6228H118.544C118.385 20.6228 118.225 20.6228 118.066 20.4615C118.066 20.4615 117.906 20.3001 117.747 19.9773L116.949 18.3637L116.151 16.5888V21.4296C116.151 21.591 116.151 21.591 116.151 21.591H115.992H114.715C114.556 21.591 114.556 21.591 114.556 21.591V21.4296V13.5229C114.556 13.2001 114.556 13.0388 114.715 12.8774C114.875 12.7161 115.034 12.7161 115.353 12.7161H116.151C116.47 12.7161 116.63 12.7161 116.63 12.8774C116.789 13.0388 116.789 13.2002 116.949 13.3616L118.385 16.4274L119.183 18.2024L119.981 16.266L121.257 13.3616C121.416 13.2002 121.417 13.0388 121.576 12.8774C121.736 12.7161 121.895 12.7161 122.214 12.7161H122.852C123.172 12.7161 123.331 12.7161 123.491 12.8774C123.65 13.0388 123.65 13.2001 123.65 13.5229V21.4296C123.65 21.591 123.65 21.591 123.65 21.591H123.491H122.055C121.895 21.591 121.895 21.591 121.895 21.591V21.4296V16.4274H121.736Z" fill="white"/>
</svg>
