<svg width="106" height="13" viewBox="0 0 106 13" fill="none" xmlns="http://www.w3.org/2000/svg">
<path d="M5.60229 9.96623C6.1957 9.96623 6.59133 9.96628 6.98693 9.76838C7.38254 9.57049 7.77815 9.57046 8.17376 9.37256C8.37156 9.37256 8.37153 9.37256 8.56933 9.37256L8.76714 9.57047L9.36053 10.7579C9.36053 10.9558 9.55833 10.9557 9.36053 11.1536C9.36053 11.1536 9.36057 11.3515 9.16277 11.3515C8.56936 11.7473 7.97591 11.9452 7.3825 12.1431C6.78909 12.341 6.1957 12.341 5.60229 12.341C4.81108 12.341 4.01986 12.1431 3.42645 11.9452C2.83304 11.7473 2.23966 11.3516 1.84405 10.7579C1.44845 10.3621 1.05284 9.76833 0.855041 8.97675C0.657239 8.18516 0.657227 7.39361 0.657227 6.60203C0.657227 5.81044 0.855053 5.01883 1.05286 4.22724C1.25066 3.43566 1.64626 2.84198 2.04187 2.44619C2.43747 1.8525 3.03086 1.45669 3.62426 1.25879C4.21767 1.0609 5.00888 0.863037 5.60229 0.863037C6.1957 0.863037 6.59134 0.862989 7.18475 1.06089C7.77815 1.06089 8.17374 1.25882 8.76714 1.65461C8.96495 1.65461 8.96496 1.85252 8.96496 1.85252C8.96496 1.85252 8.96496 2.05038 8.96496 2.24828L8.56933 3.43567C8.56933 3.63356 8.37151 3.63358 8.37151 3.63358C8.37151 3.63358 8.17375 3.63358 7.97594 3.63358C7.58034 3.43568 7.18473 3.43566 6.98693 3.23776C6.59133 3.23776 6.39352 3.03985 5.99792 3.03985C5.60231 3.03985 5.2067 3.03986 4.81109 3.23776C4.41549 3.43566 4.2177 3.63354 4.01989 4.02933C3.82209 4.42513 3.62425 4.82093 3.42645 5.21672C3.22865 5.61252 3.2287 6.20623 3.2287 6.60203C3.2287 7.19571 3.22865 7.59147 3.42645 7.98726C3.42645 8.38306 3.62428 8.77886 3.82208 9.17466C4.01988 9.57045 4.41547 9.76833 4.61328 9.96623C4.61328 9.76833 5.20669 9.96623 5.60229 9.96623Z" fill="white"/>
<path d="M16.6784 9.57047H13.118L12.5245 11.5494C12.5245 11.7473 12.5245 11.7473 12.3267 11.7473C12.3267 11.7473 12.129 11.7473 11.9312 11.7473H10.1509C9.95314 11.7473 9.95312 11.7473 9.95312 11.7473V11.5494L13.3157 1.65461C13.3157 1.45671 13.5135 1.25879 13.5135 1.25879C13.5135 1.0609 13.7114 1.06089 13.7114 1.06089C13.7114 1.06089 13.9092 0.863037 14.107 0.863037C14.3048 0.863037 14.3048 0.863037 14.5026 0.863037H15.4916C15.6894 0.863037 15.8872 0.863037 15.8872 0.863037C16.085 0.863037 16.085 0.862989 16.2828 1.06089L16.4806 1.25879C16.4806 1.45669 16.6784 1.45671 16.6784 1.65461L20.0411 11.5494V11.7473C20.0411 11.7473 20.0411 11.9452 19.8433 11.9452H17.8652C17.6674 11.9452 17.6674 11.9452 17.6674 11.9452C17.6674 11.9452 17.4696 11.9452 17.4696 11.7473L16.6784 9.57047ZM13.5135 7.59151H16.085L15.4916 5.61254L14.8982 3.43567L14.3047 5.61254L13.5135 7.59151Z" fill="white"/>
<path d="M30.1301 11.7473C30.1301 11.7473 29.9323 11.7473 29.7345 11.7473H28.152C27.9542 11.7473 27.9543 11.7473 27.9543 11.7473V11.5494V7.19569H23.6026V11.5494C23.6026 11.7473 23.6026 11.7473 23.6026 11.7473C23.6026 11.7473 23.4048 11.7473 23.207 11.7473H21.6246C21.4268 11.7473 21.4268 11.7473 21.4268 11.7473V11.5494V1.06089C21.4268 0.862989 21.4268 0.863037 21.4268 0.863037H21.6246H23.207C23.4048 0.863037 23.4048 0.863037 23.6026 0.863037V1.06089V5.01882H27.9543V1.06089C27.9543 0.862989 27.9543 0.863037 27.9543 0.863037H28.152H29.7345C29.9323 0.863037 29.9323 0.863037 30.1301 0.863037V1.06089V11.5494C30.3279 11.7473 30.3279 11.7473 30.1301 11.7473Z" fill="white"/>
<path d="M40.0196 2.842H37.2504V11.5494C37.2504 11.7473 37.2504 11.7473 37.2504 11.7473C37.2504 11.7473 37.0526 11.7473 36.8548 11.7473H35.0745C34.8767 11.7473 34.8768 11.7473 34.8768 11.7473V11.5494V2.842H32.1075C31.9097 2.842 31.7119 2.64408 31.7119 2.44619V1.06089C31.7119 0.862989 31.7119 0.863037 31.7119 0.863037H31.9097H40.0196C40.2174 0.863037 40.2174 0.863037 40.2174 0.863037V1.06089V2.44619C40.4152 2.84198 40.2174 2.842 40.0196 2.842Z" fill="white"/>
<path d="M49.5137 11.7473H49.3158H44.5686C43.9752 11.7473 43.5796 11.7473 43.184 11.5494C42.7884 11.3515 42.5906 11.1536 42.1949 10.9557C41.9971 10.7578 41.7994 10.362 41.7994 9.96623C41.7994 9.57044 41.6016 9.17465 41.6016 8.97675V3.83149C41.6016 3.43569 41.6016 3.03989 41.7994 2.64409C41.9972 2.2483 41.9972 2.0504 42.3928 1.65461C42.5906 1.45671 42.9862 1.25878 43.3818 1.06089C43.7774 0.862989 44.173 0.863037 44.7664 0.863037H49.3158C49.5137 0.863037 49.5137 0.863037 49.5137 0.863037C49.5137 0.863037 49.5137 1.0609 49.5137 1.25879V2.64409C49.5137 2.84199 49.5137 2.842 49.5137 2.842H49.3158H45.3598C44.9642 2.842 44.7664 2.84195 44.5686 3.03985C44.3708 3.23775 44.3708 3.43569 44.3708 3.83149V5.01882H48.9202C49.118 5.01882 49.118 5.01882 49.118 5.01882C49.118 5.01882 49.118 5.21674 49.118 5.41463V6.60203C49.118 6.79992 49.118 6.79993 49.118 6.79993H48.9202H44.3708V8.58099C44.3708 8.97678 44.3708 9.17467 44.5686 9.37257C44.7664 9.57046 44.9642 9.57047 45.3598 9.57047H49.5137C49.7115 9.57047 49.7115 9.57047 49.7115 9.57047C49.7115 9.57047 49.7115 9.76833 49.7115 9.96623V11.3515C49.5137 11.7473 49.5137 11.7473 49.5137 11.7473Z" fill="white"/>
<path d="M55.0519 8.18484L53.0739 11.5491C53.0739 11.747 52.8761 11.747 52.8761 11.747C52.8761 11.747 52.6783 11.747 52.4805 11.747H50.5025C50.5025 11.747 50.3047 11.747 50.3047 11.5491V11.3512L53.6674 6.00797L50.5025 1.06055V0.862704L50.7003 0.664795H52.4805C52.6783 0.664795 52.8761 0.664795 52.8761 0.664795L53.0739 0.862704L54.8541 4.029L56.6344 0.862704C56.6344 0.664807 56.8321 0.664795 56.8321 0.664795C56.8321 0.664795 57.03 0.664795 57.2278 0.664795H59.008C59.2058 0.664795 59.2058 0.664807 59.2058 0.862704V1.06055L56.2388 6.00797L59.6014 11.5491V11.747C59.6014 11.747 59.6014 11.9449 59.4036 11.9449H57.4256C57.2278 11.9449 57.03 11.9449 57.03 11.9449L56.8321 11.747L55.0519 8.18484Z" fill="white"/>
<path d="M70.2831 11.549C70.2831 11.7469 70.2831 11.7469 70.2831 11.7469H70.0853H68.1072C67.9094 11.7469 67.7116 11.549 67.7116 11.3511V2.64367H63.36V11.3511C63.36 11.549 63.36 11.549 63.36 11.549H63.1622H61.382C61.1842 11.549 60.9863 11.3511 60.9863 11.1532V1.45628C60.9863 1.06049 60.9863 0.862602 61.1841 0.664706C61.3819 0.466809 61.5797 0.466797 61.9753 0.466797H69.0962C69.4918 0.466797 69.6896 0.466809 69.8874 0.664706C70.0852 0.862602 70.0853 1.06049 70.0853 1.45628V11.549H70.2831Z" fill="white"/>
<path d="M75.0313 11.5494C75.0313 11.7473 75.0313 11.7473 75.0313 11.7473C75.0313 11.7473 74.8335 11.7473 74.6357 11.7473H73.0533C72.8555 11.7473 72.8555 11.7473 72.8555 11.7473V11.5494V1.85252C72.8555 1.65462 72.8555 1.25878 73.0533 1.06089C73.2511 0.862989 73.4489 0.863037 73.8445 0.863037H77.8005C78.3939 0.863037 78.7896 0.862989 79.383 1.06089C79.7786 1.25878 80.1742 1.45673 80.5698 1.85252C80.9654 2.24831 81.1632 2.44621 81.361 2.842C81.5588 3.2378 81.5588 3.63355 81.5588 4.22724C81.5588 4.42514 81.5588 4.82093 81.361 5.21673C81.361 5.61252 81.1632 6.00832 80.7676 6.40412C80.5698 6.79991 80.1742 7.1957 79.5807 7.3936C78.9873 7.5915 78.394 7.78942 77.405 7.78942H75.2291V11.5494H75.0313ZM78.5917 4.42515C78.5917 4.22725 78.5917 4.02933 78.5917 4.02933C78.5917 3.83144 78.394 3.63358 78.394 3.63358C78.1962 3.43568 78.1962 3.43566 77.9983 3.23776C77.8005 3.23776 77.6028 3.03985 77.2071 3.03985H75.2291V6.0083H77.2071C77.8006 6.0083 78.1962 5.81044 78.394 5.61254C78.394 5.21675 78.5917 4.82094 78.5917 4.42515Z" fill="white"/>
<path d="M92.2402 6.40378C92.2402 7.39327 92.0424 8.18488 92.0424 8.77857C91.8446 9.57015 91.449 10.1638 91.0534 10.5596C90.6578 11.1533 90.0643 11.3512 89.4709 11.747C88.8775 11.9449 88.0864 12.1428 87.2952 12.1428C85.7127 12.1428 84.5259 11.5491 83.7347 10.5596C82.9435 9.57014 82.5479 8.18485 82.5479 6.40378C82.5479 5.6122 82.7457 4.82059 82.9435 4.029C83.1413 3.23741 83.5369 2.64374 83.9325 2.24794C84.3281 1.85215 84.9215 1.45634 85.5149 1.06055C86.1083 0.862655 86.7017 0.664795 87.4929 0.664795C88.2841 0.664795 89.0753 0.862655 89.6688 1.06055C90.2622 1.25845 90.8556 1.65425 91.2512 2.24794C91.6468 2.64374 92.0424 3.23741 92.2402 4.029C92.0424 4.62269 92.2402 5.4143 92.2402 6.40378ZM89.6688 6.40378C89.6688 6.00799 89.6687 5.41428 89.4709 5.01848C89.4709 4.62269 89.2732 4.22694 89.0754 3.83115C88.8776 3.43536 88.6798 3.23741 88.2842 3.03952C87.8886 2.84162 87.493 2.84167 87.0973 2.84167C86.7017 2.84167 86.3061 2.84162 86.1083 3.03952C85.7127 3.23741 85.5149 3.43536 85.3171 3.83115C85.1193 4.22694 84.9215 4.42479 84.9215 5.01848C84.9215 5.41428 84.7237 5.81009 84.7237 6.40378C84.7237 6.99747 84.7237 7.39324 84.9215 7.98693C84.9215 8.38272 85.1193 8.77853 85.3171 9.17432C85.5149 9.57012 85.7127 9.768 86.1083 9.9659C86.5039 10.1638 86.7018 10.1638 87.2952 10.1638C87.6908 10.1638 88.0863 10.1638 88.4819 9.9659C88.8775 9.768 89.0754 9.57012 89.2732 9.17432C89.471 8.77853 89.6688 8.38272 89.6688 7.98693C89.6688 7.19534 89.6688 6.79958 89.6688 6.40378Z" fill="white"/>
<path d="M103.316 5.6122L102.525 6.99744L101.14 9.96589C100.943 10.1638 100.943 10.3617 100.745 10.5596C100.547 10.5596 100.349 10.7575 100.151 10.7575H99.3601C99.1623 10.7575 98.9645 10.7575 98.7667 10.5596C98.7667 10.5596 98.5689 10.3617 98.3711 9.96589L97.3821 7.98693L96.3931 5.81011V11.747C96.3931 11.9449 96.3931 11.9449 96.3931 11.9449H96.1953H94.6129C94.4151 11.9449 94.415 11.9449 94.415 11.9449V11.747V2.05003C94.415 1.65424 94.4151 1.45635 94.6129 1.25846C94.8107 1.06056 95.0084 1.06055 95.4041 1.06055H96.3931C96.7887 1.06055 96.9865 1.06056 96.9865 1.25846C97.1843 1.45635 97.1843 1.65428 97.3821 1.85218L99.1623 5.6122L100.151 7.78908L101.14 5.4143L102.723 1.85218C102.921 1.65428 102.921 1.45635 103.118 1.25846C103.316 1.06056 103.514 1.06055 103.91 1.06055H104.701C105.096 1.06055 105.294 1.06056 105.492 1.25846C105.69 1.45635 105.69 1.65424 105.69 2.05003V11.747C105.69 11.9449 105.69 11.9449 105.69 11.9449H105.492H103.712C103.514 11.9449 103.514 11.9449 103.514 11.9449V11.747V5.6122H103.316Z" fill="white"/>
</svg>
