<svg width="49" height="48" viewBox="0 0 49 48" fill="none" xmlns="http://www.w3.org/2000/svg">
<path d="M33.1562 10.3125C32.5938 9.75 31.75 9.46875 31 9.46875C30.25 9.46875 29.5 9.75 28.9375 10.3125L15.7188 23.5312L15.5312 23.8125L14.5 29.1562C14.4062 29.7188 14.6875 30 15.1562 30C15.1562 30 15.1562 30 15.25 29.9062L20.5938 28.875L20.9688 28.6875L34.1875 15.5625C35.3125 14.3438 35.3125 12.4688 34.1875 11.25L33.1562 10.3125ZM20.125 27.5625L16.1875 28.3125L16.9375 24.375L26.5938 14.7188L29.6875 17.9062L20.125 27.5625ZM33.0625 14.5312L30.8125 16.7812L27.7188 13.6875L29.9688 11.4375C30.25 11.1562 30.625 10.9688 31 10.9688C31.4688 10.9688 31.8438 11.1562 32.125 11.4375L33.0625 12.375C33.3438 12.6562 33.5312 13.125 33.5312 13.5C33.5312 13.875 33.3438 14.25 33.0625 14.5312ZM42.9062 0H6.90625C3.53125 0 0.90625 2.71875 0.90625 6V32.9062C0.90625 36.1875 3.53125 38.8125 6.90625 38.8125H15.9062V46.5938C15.9062 47.5312 16.4688 48 17.125 48C17.3125 48 17.5 48 17.7812 47.8125L29.5 39H43C46.2812 39 49 36.375 49 33.0938V6C48.9062 2.71875 46.2812 0 42.9062 0ZM47.4062 33C47.4062 35.4375 45.3438 37.4062 42.9062 37.4062H28.8438L17.4062 46.0312V37.4062H6.90625C4.375 37.4062 2.40625 35.3438 2.40625 33V6C2.40625 3.5625 4.375 1.59375 6.90625 1.59375H42.9062C45.3438 1.59375 47.4062 3.65625 47.4062 6V33Z" fill="white"/>
</svg>
