<svg width="51" height="48" viewBox="0 0 51 48" fill="none" xmlns="http://www.w3.org/2000/svg">
<rect width="51" height="48" rx="5" fill="white"/>
<path d="M31.5547 30.5938C31.3203 30.8281 30.8906 30.8281 30.6562 30.5938L25.5 25.3984L20.3047 30.5938C20.0703 30.8281 19.6406 30.8281 19.4062 30.5938C19.1719 30.3594 19.1719 29.9297 19.4062 29.6953L24.6016 24.5L19.4062 19.3438C19.1719 19.1094 19.1719 18.6797 19.4062 18.4453C19.6406 18.2109 20.0703 18.2109 20.3047 18.4453L25.5 23.6406L30.6562 18.4453C30.8906 18.2109 31.3203 18.2109 31.5547 18.4453C31.7891 18.6797 31.7891 19.1094 31.5547 19.3438L26.3594 24.5L31.5547 29.6953C31.7891 29.9297 31.7891 30.3594 31.5547 30.5938Z" fill="#202020"/>
</svg>
