<svg width="30" height="48" viewBox="0 0 30 48" fill="none" xmlns="http://www.w3.org/2000/svg">
<path d="M4.5 48H25.5C27.9375 48 30 46.0312 30 43.5V4.5C30 2.0625 27.9375 0 25.5 0H4.5C1.96875 0 0 2.0625 0 4.5V43.5C0 46.0312 1.96875 48 4.5 48ZM1.5 4.5C1.5 2.90625 2.8125 1.5 4.5 1.5H25.5C27.0938 1.5 28.5 2.90625 28.5 4.5V43.5C28.5 45.1875 27.0938 46.5 25.5 46.5H4.5C2.8125 46.5 1.5 45.1875 1.5 43.5V4.5ZM10.5 42.75H19.5C19.875 42.75 20.25 42.4688 20.25 42C20.25 41.625 19.875 41.25 19.5 41.25H10.5C10.0312 41.25 9.75 41.625 9.75 42C9.75 42.4688 10.0312 42.75 10.5 42.75Z" fill="white"/>
</svg>
