<svg width="125" height="16" viewBox="0 0 125 16" fill="none" xmlns="http://www.w3.org/2000/svg">
<rect x="0.5" y="0.5" width="124" height="15" rx="4.5" fill="white"/>
<path d="M7.46289 4.31055C8.0918 4.31055 8.56836 4.54492 8.89258 5.01367C9.2168 5.47852 9.37891 6.13672 9.37891 6.98828C9.37891 7.83594 9.22266 8.49805 8.91016 8.97461C8.60156 9.45117 8.11914 9.68945 7.46289 9.68945C6.84961 9.68945 6.38281 9.45117 6.0625 8.97461C5.74219 8.49805 5.58203 7.83594 5.58203 6.98828C5.58203 6.13672 5.73242 5.47852 6.0332 5.01367C6.33789 4.54492 6.81445 4.31055 7.46289 4.31055ZM7.46875 5.27148C7.21484 5.27148 7.02734 5.41406 6.90625 5.69922C6.78906 5.98438 6.73047 6.41602 6.73047 6.99414C6.73047 7.56836 6.78906 8.00195 6.90625 8.29492C7.02734 8.58398 7.21484 8.72852 7.46875 8.72852C7.72656 8.72852 7.91797 8.58398 8.04297 8.29492C8.17188 8.00586 8.23633 7.57227 8.23633 6.99414C8.23633 6.41992 8.17383 5.99023 8.04883 5.70508C7.92383 5.41602 7.73047 5.27148 7.46875 5.27148ZM13.2168 4.43359L8.46484 13H7.33398L12.0859 4.43359H13.2168ZM13.0586 7.73828C13.6875 7.73828 14.1641 7.97266 14.4883 8.44141C14.8164 8.90625 14.9805 9.56445 14.9805 10.416C14.9805 11.2598 14.8242 11.9199 14.5117 12.3965C14.2031 12.873 13.7188 13.1113 13.0586 13.1113C12.4453 13.1113 11.9785 12.873 11.6582 12.3965C11.3379 11.9199 11.1777 11.2598 11.1777 10.416C11.1777 9.56445 11.3281 8.90625 11.6289 8.44141C11.9336 7.97266 12.4102 7.73828 13.0586 7.73828ZM13.0645 8.69922C12.8105 8.69922 12.623 8.8418 12.502 9.12695C12.3848 9.41211 12.3262 9.84375 12.3262 10.4219C12.3262 10.9961 12.3848 11.4297 12.502 11.7227C12.623 12.0117 12.8105 12.1562 13.0645 12.1562C13.3262 12.1562 13.5195 12.0137 13.6445 11.7285C13.7695 11.4395 13.832 11.0039 13.832 10.4219C13.832 9.84766 13.7695 9.41797 13.6445 9.13281C13.5195 8.84375 13.3262 8.69922 13.0645 8.69922ZM23.4297 4.85547C22.8828 4.85547 22.3945 4.94922 21.9648 5.13672C21.5352 5.32031 21.1719 5.58203 20.875 5.92188C20.5781 6.26172 20.3516 6.66797 20.1953 7.14062C20.0391 7.60938 19.9609 8.12695 19.9609 8.69336C19.9609 9.47461 20.084 10.1582 20.3301 10.7441C20.5762 11.3262 20.9453 11.7773 21.4375 12.0977C21.9336 12.418 22.5508 12.5781 23.2891 12.5781C23.7188 12.5781 24.1094 12.5469 24.4609 12.4844C24.8125 12.418 25.1387 12.334 25.4395 12.2324V12.7598C25.1543 12.8652 24.832 12.9512 24.4727 13.0176C24.1172 13.084 23.7031 13.1172 23.2305 13.1172C22.375 13.1172 21.6562 12.9336 21.0742 12.5664C20.4961 12.1992 20.0605 11.6836 19.7676 11.0195C19.4746 10.3555 19.3281 9.58008 19.3281 8.69336C19.3281 8.05664 19.4199 7.47266 19.6035 6.94141C19.7871 6.40625 20.0547 5.94336 20.4062 5.55273C20.7617 5.1582 21.1934 4.85352 21.7012 4.63867C22.209 4.41992 22.7871 4.31055 23.4355 4.31055C23.8457 4.31055 24.2363 4.35156 24.6074 4.43359C24.9824 4.51172 25.334 4.62695 25.6621 4.7793L25.4277 5.30664C25.1113 5.15039 24.7871 5.03711 24.4551 4.9668C24.123 4.89258 23.7812 4.85547 23.4297 4.85547ZM33.4551 13H32.8516V8.78125H27.8477V13H27.2441V4.43359H27.8477V8.23047H32.8516V4.43359H33.4551V13ZM35.8867 4.43359H36.4609V10.5391C36.4609 10.6758 36.459 10.8145 36.4551 10.9551C36.4551 11.0918 36.4531 11.2266 36.4492 11.3594C36.4453 11.4883 36.4414 11.6133 36.4375 11.7344C36.4336 11.8516 36.4277 11.9609 36.4199 12.0625H36.4551L41.5 4.43359H42.1152V13H41.541V6.99414C41.541 6.83398 41.543 6.67773 41.5469 6.52539C41.5508 6.37305 41.5547 6.22656 41.5586 6.08594C41.5625 5.94531 41.5664 5.81445 41.5703 5.69336C41.5781 5.56836 41.584 5.45508 41.5879 5.35352H41.5527L36.5137 13H35.8867V4.43359ZM47.0547 8.60547L43.5684 4.43359H44.2773L47.7168 8.58203V4.43359H48.2969V8.58203L51.748 4.43359H52.4512L48.959 8.60547L52.6094 13H51.8887L48.2969 8.6582V13H47.7168V8.6582L44.1309 13H43.4102L47.0547 8.60547ZM58.5859 13H53.9043V4.43359H58.5859V4.97852H54.5078V8.22461H58.3574V8.76953H54.5078V12.4551H58.5859V13ZM66.748 13H66.1445V8.78125H61.1406V13H60.5371V4.43359H61.1406V8.23047H66.1445V4.43359H66.748V13ZM69.1797 4.43359H69.7539V10.5391C69.7539 10.6758 69.752 10.8145 69.748 10.9551C69.748 11.0918 69.7461 11.2266 69.7422 11.3594C69.7383 11.4883 69.7344 11.6133 69.7305 11.7344C69.7266 11.8516 69.7207 11.9609 69.7129 12.0625H69.748L74.793 4.43359H75.4082V13H74.834V6.99414C74.834 6.83398 74.8359 6.67773 74.8398 6.52539C74.8438 6.37305 74.8477 6.22656 74.8516 6.08594C74.8555 5.94531 74.8594 5.81445 74.8633 5.69336C74.8711 5.56836 74.877 5.45508 74.8809 5.35352H74.8457L69.8066 13H69.1797V4.43359ZM82.5156 13H77.834V4.43359H82.5156V4.97852H78.4375V8.22461H82.2871V8.76953H78.4375V12.4551H82.5156V13ZM94.6445 12.4551V15.1562H94.0703V13H87.584V4.43359H88.1875V12.4492H93.1387V4.43359H93.7305V12.4551H94.6445ZM100.902 13H96.2207V4.43359H100.902V4.97852H96.8242V8.22461H100.674V8.76953H96.8242V12.4551H100.902V13ZM109.064 13H108.461V8.78125H103.457V13H102.854V4.43359H103.457V8.23047H108.461V4.43359H109.064V13ZM111.49 13V4.43359H112.094V8.19531H113.711C114.367 8.19531 114.912 8.2793 115.346 8.44727C115.783 8.61523 116.109 8.87109 116.324 9.21484C116.539 9.55859 116.646 9.99805 116.646 10.5332C116.646 11.3301 116.41 11.9414 115.938 12.3672C115.469 12.7891 114.771 13 113.846 13H111.49ZM112.094 12.4668H113.758C114.527 12.4668 115.098 12.3125 115.469 12.0039C115.84 11.6914 116.025 11.2012 116.025 10.5332C116.025 10.0684 115.932 9.70508 115.744 9.44336C115.557 9.18164 115.285 9 114.93 8.89844C114.574 8.79297 114.141 8.74023 113.629 8.74023H112.094V12.4668ZM117.854 13V4.43359H118.457V13H117.854Z" fill="#FE5603"/>
<rect x="0.5" y="0.5" width="124" height="15" rx="4.5" stroke="#FE5603"/>
</svg>
