<svg width="38" height="16" viewBox="0 0 38 16" fill="none" xmlns="http://www.w3.org/2000/svg">
<rect width="38" height="16" rx="5" fill="#C4F830"/>
<path d="M11.1895 10.668C11.1895 11.1758 11.0645 11.6133 10.8145 11.9805C10.5684 12.3477 10.2129 12.6289 9.74805 12.8242C9.28711 13.0195 8.73633 13.1172 8.0957 13.1172C7.7832 13.1172 7.48438 13.0996 7.19922 13.0645C6.91406 13.0293 6.64453 12.9785 6.39062 12.9121C6.14062 12.8418 5.91211 12.7578 5.70508 12.6602V11.3359C6.05273 11.4883 6.44141 11.627 6.87109 11.752C7.30078 11.873 7.73828 11.9336 8.18359 11.9336C8.54688 11.9336 8.84766 11.8867 9.08594 11.793C9.32812 11.6953 9.50781 11.5586 9.625 11.3828C9.74219 11.2031 9.80078 10.9941 9.80078 10.7559C9.80078 10.502 9.73242 10.2871 9.5957 10.1113C9.45898 9.93555 9.25195 9.77539 8.97461 9.63086C8.70117 9.48242 8.35742 9.32422 7.94336 9.15625C7.66211 9.04297 7.39258 8.91406 7.13477 8.76953C6.88086 8.625 6.6543 8.45508 6.45508 8.25977C6.25586 8.06445 6.09766 7.83398 5.98047 7.56836C5.86719 7.29883 5.81055 6.98242 5.81055 6.61914C5.81055 6.13477 5.92578 5.7207 6.15625 5.37695C6.39062 5.0332 6.71875 4.76953 7.14062 4.58594C7.56641 4.40234 8.0625 4.31055 8.62891 4.31055C9.07812 4.31055 9.5 4.35742 9.89453 4.45117C10.293 4.54492 10.6836 4.67773 11.0664 4.84961L10.6211 5.98047C10.2695 5.83594 9.92773 5.7207 9.5957 5.63477C9.26758 5.54883 8.93164 5.50586 8.58789 5.50586C8.29102 5.50586 8.03906 5.55078 7.83203 5.64062C7.625 5.73047 7.4668 5.85742 7.35742 6.02148C7.25195 6.18164 7.19922 6.37305 7.19922 6.5957C7.19922 6.8457 7.25977 7.05664 7.38086 7.22852C7.50586 7.39648 7.69727 7.55078 7.95508 7.69141C8.2168 7.83203 8.55273 7.98828 8.96289 8.16016C9.43555 8.35547 9.83594 8.56055 10.1641 8.77539C10.4961 8.99023 10.75 9.24805 10.9258 9.54883C11.1016 9.8457 11.1895 10.2188 11.1895 10.668ZM18.1504 13L17.3125 10.6211H14.0371L13.1992 13H11.7168L14.9043 4.39844H16.4629L19.6445 13H18.1504ZM16.9492 9.41406L16.1348 7.07031C16.1035 6.96875 16.0586 6.82617 16 6.64258C15.9414 6.45508 15.8828 6.26562 15.8242 6.07422C15.7656 5.87891 15.7168 5.71484 15.6777 5.58203C15.6387 5.74219 15.5898 5.92188 15.5312 6.12109C15.4766 6.31641 15.4219 6.5 15.3672 6.67188C15.3164 6.84375 15.2773 6.97656 15.25 7.07031L14.4297 9.41406H16.9492ZM20.7754 13V4.43359H22.1816V11.8047H25.8203V13H20.7754ZM32.1543 13H27.3027V4.43359H32.1543V5.61719H28.709V7.94336H31.9375V9.12109H28.709V11.8105H32.1543V13Z" fill="white"/>
</svg>
